<?xml version="1.0" encoding="utf-8" standalone="no"?>
<!DOCTYPE svg PUBLIC "-//W3C//DTD SVG 1.1//EN"
  "http://www.w3.org/Graphics/SVG/1.1/DTD/svg11.dtd">
<svg xmlns:xlink="http://www.w3.org/1999/xlink" width="1080pt" height="360pt" viewBox="0 0 1080 360" xmlns="http://www.w3.org/2000/svg" version="1.1">
 <metadata>
  <rdf:RDF xmlns:dc="http://purl.org/dc/elements/1.1/" xmlns:cc="http://creativecommons.org/ns#" xmlns:rdf="http://www.w3.org/1999/02/22-rdf-syntax-ns#">
   <cc:Work>
    <dc:type rdf:resource="http://purl.org/dc/dcmitype/StillImage"/>
    <dc:date>2025-05-18T17:49:56.295773</dc:date>
    <dc:format>image/svg+xml</dc:format>
    <dc:creator>
     <cc:Agent>
      <dc:title>Matplotlib v3.10.0, https://matplotlib.org/</dc:title>
     </cc:Agent>
    </dc:creator>
   </cc:Work>
  </rdf:RDF>
 </metadata>
 <defs>
  <style type="text/css">*{stroke-linejoin: round; stroke-linecap: butt}</style>
 </defs>
 <g id="figure_1">
  <g id="patch_1">
   <path d="M 0 360 
L 1080 360 
L 1080 0 
L 0 0 
z
" style="fill: #ffffff"/>
  </g>
  <g id="axes_1">
   <g id="patch_2">
    <path d="M 44.57 314.728 
L 352.883792 314.728 
L 352.883792 52.152 
L 44.57 52.152 
z
" style="fill: #ffffff"/>
   </g>
   <g id="FillBetweenPolyCollection_1">
    <defs>
     <path id="maa1318ebb6" d="M 64.954383 -45.272 
L 64.954383 -45.272 
L 77.694622 -45.272 
L 90.434862 -45.272 
L 103.175101 -45.272 
L 115.91534 -45.272 
L 128.65558 -45.272 
L 141.395819 -45.272 
L 154.136058 -45.272 
L 166.876298 -45.272 
L 179.616537 -45.272 
L 192.356776 -45.272 
L 205.097016 -45.272 
L 217.837255 -45.272 
L 230.577494 -45.272 
L 243.317734 -45.272 
L 256.057973 -45.272 
L 268.798213 -45.272 
L 281.538452 -45.272 
L 294.278691 -45.272 
L 307.018931 -45.272 
L 319.75917 -45.272 
L 332.499409 -45.272 
L 332.499409 -140.189984 
L 332.499409 -140.189984 
L 319.75917 -94.556338 
L 307.018931 -79.953571 
L 294.278691 -92.730992 
L 281.538452 -89.0803 
L 268.798213 -107.333759 
L 256.057973 -110.98445 
L 243.317734 -180.347593 
L 230.577494 -295.344381 
L 217.837255 -215.029164 
L 205.097016 -105.508413 
L 192.356776 -56.224075 
L 179.616537 -45.272 
L 166.876298 -45.272 
L 154.136058 -45.272 
L 141.395819 -45.272 
L 128.65558 -45.272 
L 115.91534 -45.272 
L 103.175101 -45.272 
L 90.434862 -45.272 
L 77.694622 -45.272 
L 64.954383 -45.272 
z
" style="stroke: #008b8b"/>
    </defs>
    <g clip-path="url(#p30c3722a6c)">
     <use xlink:href="#maa1318ebb6" x="0" y="360" style="fill: #008b8b; fill-opacity: 0.25; stroke: #008b8b"/>
    </g>
   </g>
   <g id="FillBetweenPolyCollection_2">
    <defs>
     <path id="m4849a6621f" d="M 64.954383 -54.398729 
L 64.954383 -45.272 
L 77.694622 -45.272 
L 90.434862 -45.272 
L 103.175101 -45.272 
L 115.91534 -45.272 
L 128.65558 -45.272 
L 141.395819 -45.272 
L 154.136058 -45.272 
L 166.876298 -45.272 
L 179.616537 -45.272 
L 192.356776 -45.272 
L 205.097016 -45.272 
L 217.837255 -45.272 
L 230.577494 -45.272 
L 243.317734 -45.272 
L 256.057973 -45.272 
L 268.798213 -45.272 
L 281.538452 -45.272 
L 294.278691 -45.272 
L 307.018931 -45.272 
L 319.75917 -45.272 
L 332.499409 -45.272 
L 332.499409 -63.525458 
L 332.499409 -63.525458 
L 319.75917 -98.20703 
L 307.018931 -79.953571 
L 294.278691 -70.826842 
L 281.538452 -89.0803 
L 268.798213 -69.001496 
L 256.057973 -70.826842 
L 243.317734 -98.20703 
L 230.577494 -90.905646 
L 217.837255 -121.936526 
L 205.097016 -142.01533 
L 192.356776 -145.666022 
L 179.616537 -120.11118 
L 166.876298 -132.888601 
L 154.136058 -83.604263 
L 141.395819 -110.98445 
L 128.65558 -90.905646 
L 115.91534 -94.556338 
L 103.175101 -70.826842 
L 90.434862 -69.001496 
L 77.694622 -52.573383 
L 64.954383 -54.398729 
z
" style="stroke: #ff8c00"/>
    </defs>
    <g clip-path="url(#p30c3722a6c)">
     <use xlink:href="#m4849a6621f" x="0" y="360" style="fill: #ff8c00; fill-opacity: 0.25; stroke: #ff8c00"/>
    </g>
   </g>
   <g id="matplotlib.axis_1">
    <g id="xtick_1">
     <g id="line2d_1">
      <defs>
       <path id="mcb29b4ec7d" d="M 0 0 
L 0 3.5 
" style="stroke: #000000; stroke-width: 0.8"/>
      </defs>
      <g>
       <use xlink:href="#mcb29b4ec7d" x="100.829798" y="314.728" style="stroke: #000000; stroke-width: 0.8"/>
      </g>
     </g>
     <g id="text_1">
      <!-- 0.6 -->
      <g transform="translate(92.878235 329.326437) scale(0.1 -0.1)">
       <defs>
        <path id="DejaVuSans-30" d="M 2034 4250 
Q 1547 4250 1301 3770 
Q 1056 3291 1056 2328 
Q 1056 1369 1301 889 
Q 1547 409 2034 409 
Q 2525 409 2770 889 
Q 3016 1369 3016 2328 
Q 3016 3291 2770 3770 
Q 2525 4250 2034 4250 
z
M 2034 4750 
Q 2819 4750 3233 4129 
Q 3647 3509 3647 2328 
Q 3647 1150 3233 529 
Q 2819 -91 2034 -91 
Q 1250 -91 836 529 
Q 422 1150 422 2328 
Q 422 3509 836 4129 
Q 1250 4750 2034 4750 
z
" transform="scale(0.015625)"/>
        <path id="DejaVuSans-2e" d="M 684 794 
L 1344 794 
L 1344 0 
L 684 0 
L 684 794 
z
" transform="scale(0.015625)"/>
        <path id="DejaVuSans-36" d="M 2113 2584 
Q 1688 2584 1439 2293 
Q 1191 2003 1191 1497 
Q 1191 994 1439 701 
Q 1688 409 2113 409 
Q 2538 409 2786 701 
Q 3034 994 3034 1497 
Q 3034 2003 2786 2293 
Q 2538 2584 2113 2584 
z
M 3366 4563 
L 3366 3988 
Q 3128 4100 2886 4159 
Q 2644 4219 2406 4219 
Q 1781 4219 1451 3797 
Q 1122 3375 1075 2522 
Q 1259 2794 1537 2939 
Q 1816 3084 2150 3084 
Q 2853 3084 3261 2657 
Q 3669 2231 3669 1497 
Q 3669 778 3244 343 
Q 2819 -91 2113 -91 
Q 1303 -91 875 529 
Q 447 1150 447 2328 
Q 447 3434 972 4092 
Q 1497 4750 2381 4750 
Q 2619 4750 2861 4703 
Q 3103 4656 3366 4563 
z
" transform="scale(0.015625)"/>
       </defs>
       <use xlink:href="#DejaVuSans-30"/>
       <use xlink:href="#DejaVuSans-2e" transform="translate(63.623047 0)"/>
       <use xlink:href="#DejaVuSans-36" transform="translate(95.410156 0)"/>
      </g>
     </g>
    </g>
    <g id="xtick_2">
     <g id="line2d_2">
      <g>
       <use xlink:href="#mcb29b4ec7d" x="163.014925" y="314.728" style="stroke: #000000; stroke-width: 0.8"/>
      </g>
     </g>
     <g id="text_2">
      <!-- 0.7 -->
      <g transform="translate(155.063363 329.326437) scale(0.1 -0.1)">
       <defs>
        <path id="DejaVuSans-37" d="M 525 4666 
L 3525 4666 
L 3525 4397 
L 1831 0 
L 1172 0 
L 2766 4134 
L 525 4134 
L 525 4666 
z
" transform="scale(0.015625)"/>
       </defs>
       <use xlink:href="#DejaVuSans-30"/>
       <use xlink:href="#DejaVuSans-2e" transform="translate(63.623047 0)"/>
       <use xlink:href="#DejaVuSans-37" transform="translate(95.410156 0)"/>
      </g>
     </g>
    </g>
    <g id="xtick_3">
     <g id="line2d_3">
      <g>
       <use xlink:href="#mcb29b4ec7d" x="225.200052" y="314.728" style="stroke: #000000; stroke-width: 0.8"/>
      </g>
     </g>
     <g id="text_3">
      <!-- 0.8 -->
      <g transform="translate(217.24849 329.326437) scale(0.1 -0.1)">
       <defs>
        <path id="DejaVuSans-38" d="M 2034 2216 
Q 1584 2216 1326 1975 
Q 1069 1734 1069 1313 
Q 1069 891 1326 650 
Q 1584 409 2034 409 
Q 2484 409 2743 651 
Q 3003 894 3003 1313 
Q 3003 1734 2745 1975 
Q 2488 2216 2034 2216 
z
M 1403 2484 
Q 997 2584 770 2862 
Q 544 3141 544 3541 
Q 544 4100 942 4425 
Q 1341 4750 2034 4750 
Q 2731 4750 3128 4425 
Q 3525 4100 3525 3541 
Q 3525 3141 3298 2862 
Q 3072 2584 2669 2484 
Q 3125 2378 3379 2068 
Q 3634 1759 3634 1313 
Q 3634 634 3220 271 
Q 2806 -91 2034 -91 
Q 1263 -91 848 271 
Q 434 634 434 1313 
Q 434 1759 690 2068 
Q 947 2378 1403 2484 
z
M 1172 3481 
Q 1172 3119 1398 2916 
Q 1625 2713 2034 2713 
Q 2441 2713 2670 2916 
Q 2900 3119 2900 3481 
Q 2900 3844 2670 4047 
Q 2441 4250 2034 4250 
Q 1625 4250 1398 4047 
Q 1172 3844 1172 3481 
z
" transform="scale(0.015625)"/>
       </defs>
       <use xlink:href="#DejaVuSans-30"/>
       <use xlink:href="#DejaVuSans-2e" transform="translate(63.623047 0)"/>
       <use xlink:href="#DejaVuSans-38" transform="translate(95.410156 0)"/>
      </g>
     </g>
    </g>
    <g id="xtick_4">
     <g id="line2d_4">
      <g>
       <use xlink:href="#mcb29b4ec7d" x="287.385179" y="314.728" style="stroke: #000000; stroke-width: 0.8"/>
      </g>
     </g>
     <g id="text_4">
      <!-- 0.9 -->
      <g transform="translate(279.433617 329.326437) scale(0.1 -0.1)">
       <defs>
        <path id="DejaVuSans-39" d="M 703 97 
L 703 672 
Q 941 559 1184 500 
Q 1428 441 1663 441 
Q 2288 441 2617 861 
Q 2947 1281 2994 2138 
Q 2813 1869 2534 1725 
Q 2256 1581 1919 1581 
Q 1219 1581 811 2004 
Q 403 2428 403 3163 
Q 403 3881 828 4315 
Q 1253 4750 1959 4750 
Q 2769 4750 3195 4129 
Q 3622 3509 3622 2328 
Q 3622 1225 3098 567 
Q 2575 -91 1691 -91 
Q 1453 -91 1209 -44 
Q 966 3 703 97 
z
M 1959 2075 
Q 2384 2075 2632 2365 
Q 2881 2656 2881 3163 
Q 2881 3666 2632 3958 
Q 2384 4250 1959 4250 
Q 1534 4250 1286 3958 
Q 1038 3666 1038 3163 
Q 1038 2656 1286 2365 
Q 1534 2075 1959 2075 
z
" transform="scale(0.015625)"/>
       </defs>
       <use xlink:href="#DejaVuSans-30"/>
       <use xlink:href="#DejaVuSans-2e" transform="translate(63.623047 0)"/>
       <use xlink:href="#DejaVuSans-39" transform="translate(95.410156 0)"/>
      </g>
     </g>
    </g>
    <g id="xtick_5">
     <g id="line2d_5">
      <g>
       <use xlink:href="#mcb29b4ec7d" x="349.570307" y="314.728" style="stroke: #000000; stroke-width: 0.8"/>
      </g>
     </g>
     <g id="text_5">
      <!-- 1.0 -->
      <g transform="translate(341.618744 329.326437) scale(0.1 -0.1)">
       <defs>
        <path id="DejaVuSans-31" d="M 794 531 
L 1825 531 
L 1825 4091 
L 703 3866 
L 703 4441 
L 1819 4666 
L 2450 4666 
L 2450 531 
L 3481 531 
L 3481 0 
L 794 0 
L 794 531 
z
" transform="scale(0.015625)"/>
       </defs>
       <use xlink:href="#DejaVuSans-31"/>
       <use xlink:href="#DejaVuSans-2e" transform="translate(63.623047 0)"/>
       <use xlink:href="#DejaVuSans-30" transform="translate(95.410156 0)"/>
      </g>
     </g>
    </g>
    <g id="text_6">
     <!-- $R^2$ -->
     <g transform="translate(192.526896 343.004562) scale(0.1 -0.1)">
      <defs>
       <path id="DejaVuSans-Oblique-52" d="M 1613 4147 
L 1294 2491 
L 2106 2491 
Q 2584 2491 2879 2755 
Q 3175 3019 3175 3444 
Q 3175 3784 2976 3965 
Q 2778 4147 2406 4147 
L 1613 4147 
z
M 2772 2241 
Q 2972 2194 3105 2009 
Q 3238 1825 3413 1275 
L 3809 0 
L 3144 0 
L 2778 1197 
Q 2638 1659 2453 1815 
Q 2269 1972 1888 1972 
L 1191 1972 
L 806 0 
L 172 0 
L 1081 4666 
L 2503 4666 
Q 3150 4666 3495 4373 
Q 3841 4081 3841 3531 
Q 3841 3044 3547 2687 
Q 3253 2331 2772 2241 
z
" transform="scale(0.015625)"/>
       <path id="DejaVuSans-32" d="M 1228 531 
L 3431 531 
L 3431 0 
L 469 0 
L 469 531 
Q 828 903 1448 1529 
Q 2069 2156 2228 2338 
Q 2531 2678 2651 2914 
Q 2772 3150 2772 3378 
Q 2772 3750 2511 3984 
Q 2250 4219 1831 4219 
Q 1534 4219 1204 4116 
Q 875 4013 500 3803 
L 500 4441 
Q 881 4594 1212 4672 
Q 1544 4750 1819 4750 
Q 2544 4750 2975 4387 
Q 3406 4025 3406 3419 
Q 3406 3131 3298 2873 
Q 3191 2616 2906 2266 
Q 2828 2175 2409 1742 
Q 1991 1309 1228 531 
z
" transform="scale(0.015625)"/>
      </defs>
      <use xlink:href="#DejaVuSans-Oblique-52" transform="translate(0 0.765625)"/>
      <use xlink:href="#DejaVuSans-32" transform="translate(76.499193 39.046875) scale(0.7)"/>
     </g>
    </g>
   </g>
   <g id="matplotlib.axis_2">
    <g id="ytick_1">
     <g id="line2d_6">
      <defs>
       <path id="ma74d871db8" d="M 0 0 
L -3.5 0 
" style="stroke: #000000; stroke-width: 0.8"/>
      </defs>
      <g>
       <use xlink:href="#ma74d871db8" x="44.57" y="314.728" style="stroke: #000000; stroke-width: 0.8"/>
      </g>
     </g>
     <g id="text_7">
      <!-- 0 -->
      <g transform="translate(31.2075 318.527219) scale(0.1 -0.1)">
       <use xlink:href="#DejaVuSans-30"/>
      </g>
     </g>
    </g>
    <g id="ytick_2">
     <g id="line2d_7">
      <g>
       <use xlink:href="#ma74d871db8" x="44.57" y="273.767239" style="stroke: #000000; stroke-width: 0.8"/>
      </g>
     </g>
     <g id="text_8">
      <!-- 2 -->
      <g transform="translate(31.2075 277.566458) scale(0.1 -0.1)">
       <use xlink:href="#DejaVuSans-32"/>
      </g>
     </g>
    </g>
    <g id="ytick_3">
     <g id="line2d_8">
      <g>
       <use xlink:href="#ma74d871db8" x="44.57" y="232.806478" style="stroke: #000000; stroke-width: 0.8"/>
      </g>
     </g>
     <g id="text_9">
      <!-- 4 -->
      <g transform="translate(31.2075 236.605697) scale(0.1 -0.1)">
       <defs>
        <path id="DejaVuSans-34" d="M 2419 4116 
L 825 1625 
L 2419 1625 
L 2419 4116 
z
M 2253 4666 
L 3047 4666 
L 3047 1625 
L 3713 1625 
L 3713 1100 
L 3047 1100 
L 3047 0 
L 2419 0 
L 2419 1100 
L 313 1100 
L 313 1709 
L 2253 4666 
z
" transform="scale(0.015625)"/>
       </defs>
       <use xlink:href="#DejaVuSans-34"/>
      </g>
     </g>
    </g>
    <g id="ytick_4">
     <g id="line2d_9">
      <g>
       <use xlink:href="#ma74d871db8" x="44.57" y="191.845718" style="stroke: #000000; stroke-width: 0.8"/>
      </g>
     </g>
     <g id="text_10">
      <!-- 6 -->
      <g transform="translate(31.2075 195.644936) scale(0.1 -0.1)">
       <use xlink:href="#DejaVuSans-36"/>
      </g>
     </g>
    </g>
    <g id="ytick_5">
     <g id="line2d_10">
      <g>
       <use xlink:href="#ma74d871db8" x="44.57" y="150.884957" style="stroke: #000000; stroke-width: 0.8"/>
      </g>
     </g>
     <g id="text_11">
      <!-- 8 -->
      <g transform="translate(31.2075 154.684176) scale(0.1 -0.1)">
       <use xlink:href="#DejaVuSans-38"/>
      </g>
     </g>
    </g>
    <g id="ytick_6">
     <g id="line2d_11">
      <g>
       <use xlink:href="#ma74d871db8" x="44.57" y="109.924196" style="stroke: #000000; stroke-width: 0.8"/>
      </g>
     </g>
     <g id="text_12">
      <!-- 10 -->
      <g transform="translate(24.845 113.723415) scale(0.1 -0.1)">
       <use xlink:href="#DejaVuSans-31"/>
       <use xlink:href="#DejaVuSans-30" transform="translate(63.623047 0)"/>
      </g>
     </g>
    </g>
    <g id="ytick_7">
     <g id="line2d_12">
      <g>
       <use xlink:href="#ma74d871db8" x="44.57" y="68.963435" style="stroke: #000000; stroke-width: 0.8"/>
      </g>
     </g>
     <g id="text_13">
      <!-- 12 -->
      <g transform="translate(24.845 72.762654) scale(0.1 -0.1)">
       <use xlink:href="#DejaVuSans-31"/>
       <use xlink:href="#DejaVuSans-32" transform="translate(63.623047 0)"/>
      </g>
     </g>
    </g>
    <g id="text_14">
     <!-- Density (%) -->
     <g transform="translate(18.765312 212.69) rotate(-90) scale(0.1 -0.1)">
      <defs>
       <path id="DejaVuSans-44" d="M 1259 4147 
L 1259 519 
L 2022 519 
Q 2988 519 3436 956 
Q 3884 1394 3884 2338 
Q 3884 3275 3436 3711 
Q 2988 4147 2022 4147 
L 1259 4147 
z
M 628 4666 
L 1925 4666 
Q 3281 4666 3915 4102 
Q 4550 3538 4550 2338 
Q 4550 1131 3912 565 
Q 3275 0 1925 0 
L 628 0 
L 628 4666 
z
" transform="scale(0.015625)"/>
       <path id="DejaVuSans-65" d="M 3597 1894 
L 3597 1613 
L 953 1613 
Q 991 1019 1311 708 
Q 1631 397 2203 397 
Q 2534 397 2845 478 
Q 3156 559 3463 722 
L 3463 178 
Q 3153 47 2828 -22 
Q 2503 -91 2169 -91 
Q 1331 -91 842 396 
Q 353 884 353 1716 
Q 353 2575 817 3079 
Q 1281 3584 2069 3584 
Q 2775 3584 3186 3129 
Q 3597 2675 3597 1894 
z
M 3022 2063 
Q 3016 2534 2758 2815 
Q 2500 3097 2075 3097 
Q 1594 3097 1305 2825 
Q 1016 2553 972 2059 
L 3022 2063 
z
" transform="scale(0.015625)"/>
       <path id="DejaVuSans-6e" d="M 3513 2113 
L 3513 0 
L 2938 0 
L 2938 2094 
Q 2938 2591 2744 2837 
Q 2550 3084 2163 3084 
Q 1697 3084 1428 2787 
Q 1159 2491 1159 1978 
L 1159 0 
L 581 0 
L 581 3500 
L 1159 3500 
L 1159 2956 
Q 1366 3272 1645 3428 
Q 1925 3584 2291 3584 
Q 2894 3584 3203 3211 
Q 3513 2838 3513 2113 
z
" transform="scale(0.015625)"/>
       <path id="DejaVuSans-73" d="M 2834 3397 
L 2834 2853 
Q 2591 2978 2328 3040 
Q 2066 3103 1784 3103 
Q 1356 3103 1142 2972 
Q 928 2841 928 2578 
Q 928 2378 1081 2264 
Q 1234 2150 1697 2047 
L 1894 2003 
Q 2506 1872 2764 1633 
Q 3022 1394 3022 966 
Q 3022 478 2636 193 
Q 2250 -91 1575 -91 
Q 1294 -91 989 -36 
Q 684 19 347 128 
L 347 722 
Q 666 556 975 473 
Q 1284 391 1588 391 
Q 1994 391 2212 530 
Q 2431 669 2431 922 
Q 2431 1156 2273 1281 
Q 2116 1406 1581 1522 
L 1381 1569 
Q 847 1681 609 1914 
Q 372 2147 372 2553 
Q 372 3047 722 3315 
Q 1072 3584 1716 3584 
Q 2034 3584 2315 3537 
Q 2597 3491 2834 3397 
z
" transform="scale(0.015625)"/>
       <path id="DejaVuSans-69" d="M 603 3500 
L 1178 3500 
L 1178 0 
L 603 0 
L 603 3500 
z
M 603 4863 
L 1178 4863 
L 1178 4134 
L 603 4134 
L 603 4863 
z
" transform="scale(0.015625)"/>
       <path id="DejaVuSans-74" d="M 1172 4494 
L 1172 3500 
L 2356 3500 
L 2356 3053 
L 1172 3053 
L 1172 1153 
Q 1172 725 1289 603 
Q 1406 481 1766 481 
L 2356 481 
L 2356 0 
L 1766 0 
Q 1100 0 847 248 
Q 594 497 594 1153 
L 594 3053 
L 172 3053 
L 172 3500 
L 594 3500 
L 594 4494 
L 1172 4494 
z
" transform="scale(0.015625)"/>
       <path id="DejaVuSans-79" d="M 2059 -325 
Q 1816 -950 1584 -1140 
Q 1353 -1331 966 -1331 
L 506 -1331 
L 506 -850 
L 844 -850 
Q 1081 -850 1212 -737 
Q 1344 -625 1503 -206 
L 1606 56 
L 191 3500 
L 800 3500 
L 1894 763 
L 2988 3500 
L 3597 3500 
L 2059 -325 
z
" transform="scale(0.015625)"/>
       <path id="DejaVuSans-20" transform="scale(0.015625)"/>
       <path id="DejaVuSans-28" d="M 1984 4856 
Q 1566 4138 1362 3434 
Q 1159 2731 1159 2009 
Q 1159 1288 1364 580 
Q 1569 -128 1984 -844 
L 1484 -844 
Q 1016 -109 783 600 
Q 550 1309 550 2009 
Q 550 2706 781 3412 
Q 1013 4119 1484 4856 
L 1984 4856 
z
" transform="scale(0.015625)"/>
       <path id="DejaVuSans-25" d="M 4653 2053 
Q 4381 2053 4226 1822 
Q 4072 1591 4072 1178 
Q 4072 772 4226 539 
Q 4381 306 4653 306 
Q 4919 306 5073 539 
Q 5228 772 5228 1178 
Q 5228 1588 5073 1820 
Q 4919 2053 4653 2053 
z
M 4653 2450 
Q 5147 2450 5437 2106 
Q 5728 1763 5728 1178 
Q 5728 594 5436 251 
Q 5144 -91 4653 -91 
Q 4153 -91 3862 251 
Q 3572 594 3572 1178 
Q 3572 1766 3864 2108 
Q 4156 2450 4653 2450 
z
M 1428 4353 
Q 1159 4353 1004 4120 
Q 850 3888 850 3481 
Q 850 3069 1003 2837 
Q 1156 2606 1428 2606 
Q 1700 2606 1854 2837 
Q 2009 3069 2009 3481 
Q 2009 3884 1853 4118 
Q 1697 4353 1428 4353 
z
M 4250 4750 
L 4750 4750 
L 1831 -91 
L 1331 -91 
L 4250 4750 
z
M 1428 4750 
Q 1922 4750 2215 4408 
Q 2509 4066 2509 3481 
Q 2509 2891 2217 2550 
Q 1925 2209 1428 2209 
Q 931 2209 642 2551 
Q 353 2894 353 3481 
Q 353 4063 643 4406 
Q 934 4750 1428 4750 
z
" transform="scale(0.015625)"/>
       <path id="DejaVuSans-29" d="M 513 4856 
L 1013 4856 
Q 1481 4119 1714 3412 
Q 1947 2706 1947 2009 
Q 1947 1309 1714 600 
Q 1481 -109 1013 -844 
L 513 -844 
Q 928 -128 1133 580 
Q 1338 1288 1338 2009 
Q 1338 2731 1133 3434 
Q 928 4138 513 4856 
z
" transform="scale(0.015625)"/>
      </defs>
      <use xlink:href="#DejaVuSans-44"/>
      <use xlink:href="#DejaVuSans-65" transform="translate(77.001953 0)"/>
      <use xlink:href="#DejaVuSans-6e" transform="translate(138.525391 0)"/>
      <use xlink:href="#DejaVuSans-73" transform="translate(201.904297 0)"/>
      <use xlink:href="#DejaVuSans-69" transform="translate(254.003906 0)"/>
      <use xlink:href="#DejaVuSans-74" transform="translate(281.787109 0)"/>
      <use xlink:href="#DejaVuSans-79" transform="translate(320.996094 0)"/>
      <use xlink:href="#DejaVuSans-20" transform="translate(380.175781 0)"/>
      <use xlink:href="#DejaVuSans-28" transform="translate(411.962891 0)"/>
      <use xlink:href="#DejaVuSans-25" transform="translate(450.976562 0)"/>
      <use xlink:href="#DejaVuSans-29" transform="translate(545.996094 0)"/>
     </g>
    </g>
   </g>
   <g id="line2d_13">
    <path d="M 58.584263 314.728 
L 162.810945 314.618317 
L 167.036351 314.414727 
L 169.853288 314.132434 
L 172.670226 313.644023 
L 175.487163 312.835654 
L 176.895632 312.265115 
L 178.3041 311.553696 
L 179.712569 310.675669 
L 181.121038 309.602907 
L 182.529506 308.305181 
L 183.937975 306.750604 
L 185.346444 304.90619 
L 186.754912 302.738549 
L 188.163381 300.214689 
L 189.57185 297.302904 
L 190.980318 293.973721 
L 192.388787 290.20088 
L 193.797256 285.962314 
L 195.205724 281.2411 
L 196.614193 276.026363 
L 198.022662 270.31413 
L 200.839599 257.420365 
L 203.656536 242.693879 
L 206.473474 226.421713 
L 210.69888 200.15392 
L 214.924286 173.704402 
L 217.741223 157.402346 
L 219.149692 150.00936 
L 220.558161 143.282547 
L 221.966629 137.336948 
L 223.375098 132.278886 
L 224.783567 128.202298 
L 226.192035 125.185146 
L 227.600504 123.286096 
L 229.008973 122.54164 
L 230.417441 122.963842 
L 231.82591 124.5389 
L 233.234379 127.226644 
L 234.642847 130.961087 
L 236.051316 135.652079 
L 237.459785 141.188033 
L 238.868253 147.439645 
L 241.685191 161.511917 
L 248.727534 198.940998 
L 251.544471 212.194239 
L 252.95294 218.126851 
L 254.361409 223.55114 
L 255.769877 228.458005 
L 257.178346 232.855883 
L 258.586815 236.76787 
L 259.995283 240.228435 
L 261.403752 243.279969 
L 262.812221 245.969385 
L 264.220689 248.34496 
L 265.629158 250.453594 
L 268.446095 254.038232 
L 271.263033 257.003565 
L 274.07997 259.533611 
L 276.896907 261.731278 
L 279.713845 263.65249 
L 282.530782 265.339933 
L 286.756188 267.537177 
L 290.981594 269.460281 
L 295.207 271.110041 
L 298.023937 271.94874 
L 300.840875 272.443816 
L 302.249343 272.522154 
L 303.657812 272.467982 
L 305.066281 272.269277 
L 306.474749 271.917166 
L 307.883218 271.406567 
L 309.291687 270.736721 
L 310.700155 269.911662 
L 313.517093 267.838694 
L 316.33403 265.333014 
L 320.559436 261.341855 
L 321.967905 260.13692 
L 323.376374 259.090226 
L 324.784842 258.264467 
L 326.193311 257.722411 
L 327.60178 257.523577 
L 329.010248 257.720535 
L 330.418717 258.355128 
L 331.827186 259.454975 
L 333.235654 261.030627 
L 334.644123 263.073714 
L 336.052592 265.556353 
L 337.46106 268.431941 
L 338.869529 271.637332 
L 338.869529 271.637332 
" clip-path="url(#p30c3722a6c)" style="fill: none; stroke: #008b8b; stroke-width: 1.5; stroke-linecap: square"/>
   </g>
   <g id="line2d_14">
    <path d="M 58.584263 309.54203 
L 62.809669 308.222001 
L 67.035075 306.691329 
L 71.260481 304.925457 
L 75.485887 302.902679 
L 79.711293 300.610522 
L 83.936699 298.050566 
L 88.162105 295.240093 
L 93.79598 291.159802 
L 100.838323 285.683494 
L 112.106073 276.786169 
L 116.331479 273.682868 
L 120.556885 270.838224 
L 124.782291 268.30357 
L 129.007697 266.080986 
L 133.233103 264.11181 
L 144.500852 259.108379 
L 148.726258 256.891743 
L 152.951664 254.321257 
L 157.17707 251.382118 
L 161.402476 248.132345 
L 169.853288 241.190344 
L 175.487163 236.723298 
L 179.712569 233.720138 
L 182.529506 231.967828 
L 185.346444 230.467392 
L 188.163381 229.262853 
L 190.980318 228.396611 
L 193.797256 227.907558 
L 196.614193 227.828543 
L 199.43113 228.183545 
L 202.248068 228.984984 
L 205.065005 230.231638 
L 207.881942 231.907541 
L 210.69888 233.982121 
L 213.515817 236.411638 
L 216.332754 239.141777 
L 220.558161 243.665166 
L 226.192035 250.156388 
L 234.642847 259.919984 
L 238.868253 264.460986 
L 243.093659 268.60326 
L 245.910597 271.090764 
L 248.727534 273.327579 
L 251.544471 275.292148 
L 254.361409 276.969645 
L 257.178346 278.353894 
L 259.995283 279.448913 
L 262.812221 280.2696 
L 265.629158 280.841209 
L 268.446095 281.197527 
L 272.671501 281.415051 
L 276.896907 281.373924 
L 283.939251 281.037595 
L 299.432406 280.234582 
L 303.657812 280.209651 
L 306.474749 280.332984 
L 309.291687 280.622762 
L 312.108624 281.12867 
L 314.925561 281.896552 
L 317.742499 282.961955 
L 320.559436 284.34426 
L 323.376374 286.042388 
L 326.193311 288.032832 
L 329.010248 290.270398 
L 333.235654 293.947562 
L 338.869529 299.035306 
L 338.869529 299.035306 
" clip-path="url(#p30c3722a6c)" style="fill: none; stroke: #ff8c00; stroke-width: 1.5; stroke-linecap: square"/>
   </g>
   <g id="patch_3">
    <path d="M 44.57 314.728 
L 44.57 52.152 
" style="fill: none; stroke: #000000; stroke-width: 0.8; stroke-linejoin: miter; stroke-linecap: square"/>
   </g>
   <g id="patch_4">
    <path d="M 352.883792 314.728 
L 352.883792 52.152 
" style="fill: none; stroke: #000000; stroke-width: 0.8; stroke-linejoin: miter; stroke-linecap: square"/>
   </g>
   <g id="patch_5">
    <path d="M 44.57 314.728 
L 352.883792 314.728 
" style="fill: none; stroke: #000000; stroke-width: 0.8; stroke-linejoin: miter; stroke-linecap: square"/>
   </g>
   <g id="patch_6">
    <path d="M 44.57 52.152 
L 352.883792 52.152 
" style="fill: none; stroke: #000000; stroke-width: 0.8; stroke-linejoin: miter; stroke-linecap: square"/>
   </g>
   <g id="text_15">
    <!-- $R^2$ -->
    <g transform="translate(191.286896 46.152) scale(0.12 -0.12)">
     <use xlink:href="#DejaVuSans-Oblique-52" transform="translate(0 0.765625)"/>
     <use xlink:href="#DejaVuSans-32" transform="translate(76.499193 39.046875) scale(0.7)"/>
    </g>
   </g>
   <g id="legend_1">
    <g id="patch_7">
     <path d="M 257.90098 89.50825 
L 345.883792 89.50825 
Q 347.883792 89.50825 347.883792 87.50825 
L 347.883792 59.152 
Q 347.883792 57.152 345.883792 57.152 
L 257.90098 57.152 
Q 255.90098 57.152 255.90098 59.152 
L 255.90098 87.50825 
Q 255.90098 89.50825 257.90098 89.50825 
z
" style="fill: #ffffff; opacity: 0.8; stroke: #cccccc; stroke-linejoin: miter"/>
    </g>
    <g id="patch_8">
     <path d="M 259.90098 68.750437 
L 279.90098 68.750437 
L 279.90098 61.750437 
L 259.90098 61.750437 
z
" style="fill: #ff8c00; fill-opacity: 0.25; stroke: #ff8c00; stroke-linejoin: miter"/>
    </g>
    <g id="text_16">
     <!-- Single-step -->
     <g transform="translate(287.90098 68.750437) scale(0.1 -0.1)">
      <defs>
       <path id="DejaVuSans-53" d="M 3425 4513 
L 3425 3897 
Q 3066 4069 2747 4153 
Q 2428 4238 2131 4238 
Q 1616 4238 1336 4038 
Q 1056 3838 1056 3469 
Q 1056 3159 1242 3001 
Q 1428 2844 1947 2747 
L 2328 2669 
Q 3034 2534 3370 2195 
Q 3706 1856 3706 1288 
Q 3706 609 3251 259 
Q 2797 -91 1919 -91 
Q 1588 -91 1214 -16 
Q 841 59 441 206 
L 441 856 
Q 825 641 1194 531 
Q 1563 422 1919 422 
Q 2459 422 2753 634 
Q 3047 847 3047 1241 
Q 3047 1584 2836 1778 
Q 2625 1972 2144 2069 
L 1759 2144 
Q 1053 2284 737 2584 
Q 422 2884 422 3419 
Q 422 4038 858 4394 
Q 1294 4750 2059 4750 
Q 2388 4750 2728 4690 
Q 3069 4631 3425 4513 
z
" transform="scale(0.015625)"/>
       <path id="DejaVuSans-67" d="M 2906 1791 
Q 2906 2416 2648 2759 
Q 2391 3103 1925 3103 
Q 1463 3103 1205 2759 
Q 947 2416 947 1791 
Q 947 1169 1205 825 
Q 1463 481 1925 481 
Q 2391 481 2648 825 
Q 2906 1169 2906 1791 
z
M 3481 434 
Q 3481 -459 3084 -895 
Q 2688 -1331 1869 -1331 
Q 1566 -1331 1297 -1286 
Q 1028 -1241 775 -1147 
L 775 -588 
Q 1028 -725 1275 -790 
Q 1522 -856 1778 -856 
Q 2344 -856 2625 -561 
Q 2906 -266 2906 331 
L 2906 616 
Q 2728 306 2450 153 
Q 2172 0 1784 0 
Q 1141 0 747 490 
Q 353 981 353 1791 
Q 353 2603 747 3093 
Q 1141 3584 1784 3584 
Q 2172 3584 2450 3431 
Q 2728 3278 2906 2969 
L 2906 3500 
L 3481 3500 
L 3481 434 
z
" transform="scale(0.015625)"/>
       <path id="DejaVuSans-6c" d="M 603 4863 
L 1178 4863 
L 1178 0 
L 603 0 
L 603 4863 
z
" transform="scale(0.015625)"/>
       <path id="DejaVuSans-2d" d="M 313 2009 
L 1997 2009 
L 1997 1497 
L 313 1497 
L 313 2009 
z
" transform="scale(0.015625)"/>
       <path id="DejaVuSans-70" d="M 1159 525 
L 1159 -1331 
L 581 -1331 
L 581 3500 
L 1159 3500 
L 1159 2969 
Q 1341 3281 1617 3432 
Q 1894 3584 2278 3584 
Q 2916 3584 3314 3078 
Q 3713 2572 3713 1747 
Q 3713 922 3314 415 
Q 2916 -91 2278 -91 
Q 1894 -91 1617 61 
Q 1341 213 1159 525 
z
M 3116 1747 
Q 3116 2381 2855 2742 
Q 2594 3103 2138 3103 
Q 1681 3103 1420 2742 
Q 1159 2381 1159 1747 
Q 1159 1113 1420 752 
Q 1681 391 2138 391 
Q 2594 391 2855 752 
Q 3116 1113 3116 1747 
z
" transform="scale(0.015625)"/>
      </defs>
      <use xlink:href="#DejaVuSans-53"/>
      <use xlink:href="#DejaVuSans-69" transform="translate(63.476562 0)"/>
      <use xlink:href="#DejaVuSans-6e" transform="translate(91.259766 0)"/>
      <use xlink:href="#DejaVuSans-67" transform="translate(154.638672 0)"/>
      <use xlink:href="#DejaVuSans-6c" transform="translate(218.115234 0)"/>
      <use xlink:href="#DejaVuSans-65" transform="translate(245.898438 0)"/>
      <use xlink:href="#DejaVuSans-2d" transform="translate(307.421875 0)"/>
      <use xlink:href="#DejaVuSans-73" transform="translate(343.505859 0)"/>
      <use xlink:href="#DejaVuSans-74" transform="translate(395.605469 0)"/>
      <use xlink:href="#DejaVuSans-65" transform="translate(434.814453 0)"/>
      <use xlink:href="#DejaVuSans-70" transform="translate(496.337891 0)"/>
     </g>
    </g>
    <g id="patch_9">
     <path d="M 259.90098 83.428562 
L 279.90098 83.428562 
L 279.90098 76.428562 
L 259.90098 76.428562 
z
" style="fill: #008b8b; fill-opacity: 0.25; stroke: #008b8b; stroke-linejoin: miter"/>
    </g>
    <g id="text_17">
     <!-- Multistep -->
     <g transform="translate(287.90098 83.428562) scale(0.1 -0.1)">
      <defs>
       <path id="DejaVuSans-4d" d="M 628 4666 
L 1569 4666 
L 2759 1491 
L 3956 4666 
L 4897 4666 
L 4897 0 
L 4281 0 
L 4281 4097 
L 3078 897 
L 2444 897 
L 1241 4097 
L 1241 0 
L 628 0 
L 628 4666 
z
" transform="scale(0.015625)"/>
       <path id="DejaVuSans-75" d="M 544 1381 
L 544 3500 
L 1119 3500 
L 1119 1403 
Q 1119 906 1312 657 
Q 1506 409 1894 409 
Q 2359 409 2629 706 
Q 2900 1003 2900 1516 
L 2900 3500 
L 3475 3500 
L 3475 0 
L 2900 0 
L 2900 538 
Q 2691 219 2414 64 
Q 2138 -91 1772 -91 
Q 1169 -91 856 284 
Q 544 659 544 1381 
z
M 1991 3584 
L 1991 3584 
z
" transform="scale(0.015625)"/>
      </defs>
      <use xlink:href="#DejaVuSans-4d"/>
      <use xlink:href="#DejaVuSans-75" transform="translate(86.279297 0)"/>
      <use xlink:href="#DejaVuSans-6c" transform="translate(149.658203 0)"/>
      <use xlink:href="#DejaVuSans-74" transform="translate(177.441406 0)"/>
      <use xlink:href="#DejaVuSans-69" transform="translate(216.650391 0)"/>
      <use xlink:href="#DejaVuSans-73" transform="translate(244.433594 0)"/>
      <use xlink:href="#DejaVuSans-74" transform="translate(296.533203 0)"/>
      <use xlink:href="#DejaVuSans-65" transform="translate(335.742188 0)"/>
      <use xlink:href="#DejaVuSans-70" transform="translate(397.265625 0)"/>
     </g>
    </g>
   </g>
  </g>
  <g id="axes_2">
   <g id="patch_10">
    <path d="M 402.728104 314.728 
L 711.041896 314.728 
L 711.041896 52.152 
L 402.728104 52.152 
z
" style="fill: #ffffff"/>
   </g>
   <g id="FillBetweenPolyCollection_3">
    <defs>
     <path id="m1aa5a4bba3" d="M 422.835525 -51.896434 
L 422.835525 -45.272 
L 435.021841 -45.272 
L 447.208157 -45.272 
L 459.394473 -45.272 
L 471.580789 -45.272 
L 483.767105 -45.272 
L 495.953421 -45.272 
L 508.139736 -45.272 
L 520.326052 -45.272 
L 532.512368 -45.272 
L 544.698684 -45.272 
L 556.885 -45.272 
L 569.071316 -45.272 
L 581.257632 -45.272 
L 593.443948 -45.272 
L 605.630264 -45.272 
L 617.816579 -45.272 
L 630.002895 -45.272 
L 642.189211 -45.272 
L 654.375527 -45.272 
L 666.561843 -45.272 
L 678.748159 -45.272 
L 690.934475 -45.272 
L 690.934475 -45.272 
L 690.934475 -45.272 
L 678.748159 -45.272 
L 666.561843 -60.176976 
L 654.375527 -103.235797 
L 642.189211 -181.072896 
L 630.002895 -295.344381 
L 617.816579 -176.10457 
L 605.630264 -91.643038 
L 593.443948 -96.611363 
L 581.257632 -63.489193 
L 569.071316 -73.425844 
L 556.885 -76.738061 
L 544.698684 -68.457519 
L 532.512368 -61.833085 
L 520.326052 -58.520868 
L 508.139736 -53.552542 
L 495.953421 -60.176976 
L 483.767105 -63.489193 
L 471.580789 -58.520868 
L 459.394473 -71.769736 
L 447.208157 -56.864759 
L 435.021841 -56.864759 
L 422.835525 -51.896434 
z
" style="stroke: #008b8b"/>
    </defs>
    <g clip-path="url(#pb3bb903848)">
     <use xlink:href="#m1aa5a4bba3" x="0" y="360" style="fill: #008b8b; fill-opacity: 0.25; stroke: #008b8b"/>
    </g>
   </g>
   <g id="FillBetweenPolyCollection_4">
    <defs>
     <path id="mb037d0a8bc" d="M 422.835525 -45.272 
L 422.835525 -45.272 
L 435.021841 -45.272 
L 447.208157 -45.272 
L 459.394473 -45.272 
L 471.580789 -45.272 
L 483.767105 -45.272 
L 495.953421 -45.272 
L 508.139736 -45.272 
L 520.326052 -45.272 
L 532.512368 -45.272 
L 544.698684 -45.272 
L 556.885 -45.272 
L 569.071316 -45.272 
L 581.257632 -45.272 
L 593.443948 -45.272 
L 605.630264 -45.272 
L 617.816579 -45.272 
L 630.002895 -45.272 
L 642.189211 -45.272 
L 654.375527 -45.272 
L 666.561843 -45.272 
L 678.748159 -45.272 
L 690.934475 -45.272 
L 690.934475 -106.548014 
L 690.934475 -106.548014 
L 678.748159 -159.543485 
L 666.561843 -189.353438 
L 654.375527 -169.480136 
L 642.189211 -154.57516 
L 630.002895 -108.204122 
L 617.816579 -66.80141 
L 605.630264 -76.738061 
L 593.443948 -83.362495 
L 581.257632 -75.081953 
L 569.071316 -81.706387 
L 556.885 -63.489193 
L 544.698684 -61.833085 
L 532.512368 -55.208651 
L 520.326052 -55.208651 
L 508.139736 -88.330821 
L 495.953421 -75.081953 
L 483.767105 -51.896434 
L 471.580789 -58.520868 
L 459.394473 -50.240325 
L 447.208157 -48.584217 
L 435.021841 -45.272 
L 422.835525 -45.272 
z
" style="stroke: #ff8c00"/>
    </defs>
    <g clip-path="url(#pb3bb903848)">
     <use xlink:href="#mb037d0a8bc" x="0" y="360" style="fill: #ff8c00; fill-opacity: 0.25; stroke: #ff8c00"/>
    </g>
   </g>
   <g id="matplotlib.axis_3">
    <g id="xtick_6">
     <g id="line2d_15">
      <g>
       <use xlink:href="#mcb29b4ec7d" x="418.160062" y="314.728" style="stroke: #000000; stroke-width: 0.8"/>
      </g>
     </g>
     <g id="text_18">
      <!-- 0.2 -->
      <g transform="translate(410.2085 329.326437) scale(0.1 -0.1)">
       <use xlink:href="#DejaVuSans-30"/>
       <use xlink:href="#DejaVuSans-2e" transform="translate(63.623047 0)"/>
       <use xlink:href="#DejaVuSans-32" transform="translate(95.410156 0)"/>
      </g>
     </g>
    </g>
    <g id="xtick_7">
     <g id="line2d_16">
      <g>
       <use xlink:href="#mcb29b4ec7d" x="469.260652" y="314.728" style="stroke: #000000; stroke-width: 0.8"/>
      </g>
     </g>
     <g id="text_19">
      <!-- 0.3 -->
      <g transform="translate(461.309089 329.326437) scale(0.1 -0.1)">
       <defs>
        <path id="DejaVuSans-33" d="M 2597 2516 
Q 3050 2419 3304 2112 
Q 3559 1806 3559 1356 
Q 3559 666 3084 287 
Q 2609 -91 1734 -91 
Q 1441 -91 1130 -33 
Q 819 25 488 141 
L 488 750 
Q 750 597 1062 519 
Q 1375 441 1716 441 
Q 2309 441 2620 675 
Q 2931 909 2931 1356 
Q 2931 1769 2642 2001 
Q 2353 2234 1838 2234 
L 1294 2234 
L 1294 2753 
L 1863 2753 
Q 2328 2753 2575 2939 
Q 2822 3125 2822 3475 
Q 2822 3834 2567 4026 
Q 2313 4219 1838 4219 
Q 1578 4219 1281 4162 
Q 984 4106 628 3988 
L 628 4550 
Q 988 4650 1302 4700 
Q 1616 4750 1894 4750 
Q 2613 4750 3031 4423 
Q 3450 4097 3450 3541 
Q 3450 3153 3228 2886 
Q 3006 2619 2597 2516 
z
" transform="scale(0.015625)"/>
       </defs>
       <use xlink:href="#DejaVuSans-30"/>
       <use xlink:href="#DejaVuSans-2e" transform="translate(63.623047 0)"/>
       <use xlink:href="#DejaVuSans-33" transform="translate(95.410156 0)"/>
      </g>
     </g>
    </g>
    <g id="xtick_8">
     <g id="line2d_17">
      <g>
       <use xlink:href="#mcb29b4ec7d" x="520.361241" y="314.728" style="stroke: #000000; stroke-width: 0.8"/>
      </g>
     </g>
     <g id="text_20">
      <!-- 0.4 -->
      <g transform="translate(512.409679 329.326437) scale(0.1 -0.1)">
       <use xlink:href="#DejaVuSans-30"/>
       <use xlink:href="#DejaVuSans-2e" transform="translate(63.623047 0)"/>
       <use xlink:href="#DejaVuSans-34" transform="translate(95.410156 0)"/>
      </g>
     </g>
    </g>
    <g id="xtick_9">
     <g id="line2d_18">
      <g>
       <use xlink:href="#mcb29b4ec7d" x="571.461831" y="314.728" style="stroke: #000000; stroke-width: 0.8"/>
      </g>
     </g>
     <g id="text_21">
      <!-- 0.5 -->
      <g transform="translate(563.510268 329.326437) scale(0.1 -0.1)">
       <defs>
        <path id="DejaVuSans-35" d="M 691 4666 
L 3169 4666 
L 3169 4134 
L 1269 4134 
L 1269 2991 
Q 1406 3038 1543 3061 
Q 1681 3084 1819 3084 
Q 2600 3084 3056 2656 
Q 3513 2228 3513 1497 
Q 3513 744 3044 326 
Q 2575 -91 1722 -91 
Q 1428 -91 1123 -41 
Q 819 9 494 109 
L 494 744 
Q 775 591 1075 516 
Q 1375 441 1709 441 
Q 2250 441 2565 725 
Q 2881 1009 2881 1497 
Q 2881 1984 2565 2268 
Q 2250 2553 1709 2553 
Q 1456 2553 1204 2497 
Q 953 2441 691 2322 
L 691 4666 
z
" transform="scale(0.015625)"/>
       </defs>
       <use xlink:href="#DejaVuSans-30"/>
       <use xlink:href="#DejaVuSans-2e" transform="translate(63.623047 0)"/>
       <use xlink:href="#DejaVuSans-35" transform="translate(95.410156 0)"/>
      </g>
     </g>
    </g>
    <g id="xtick_10">
     <g id="line2d_19">
      <g>
       <use xlink:href="#mcb29b4ec7d" x="622.56242" y="314.728" style="stroke: #000000; stroke-width: 0.8"/>
      </g>
     </g>
     <g id="text_22">
      <!-- 0.6 -->
      <g transform="translate(614.610858 329.326437) scale(0.1 -0.1)">
       <use xlink:href="#DejaVuSans-30"/>
       <use xlink:href="#DejaVuSans-2e" transform="translate(63.623047 0)"/>
       <use xlink:href="#DejaVuSans-36" transform="translate(95.410156 0)"/>
      </g>
     </g>
    </g>
    <g id="xtick_11">
     <g id="line2d_20">
      <g>
       <use xlink:href="#mcb29b4ec7d" x="673.66301" y="314.728" style="stroke: #000000; stroke-width: 0.8"/>
      </g>
     </g>
     <g id="text_23">
      <!-- 0.7 -->
      <g transform="translate(665.711447 329.326437) scale(0.1 -0.1)">
       <use xlink:href="#DejaVuSans-30"/>
       <use xlink:href="#DejaVuSans-2e" transform="translate(63.623047 0)"/>
       <use xlink:href="#DejaVuSans-37" transform="translate(95.410156 0)"/>
      </g>
     </g>
    </g>
    <g id="text_24">
     <!-- $MAAPE$ -->
     <g transform="translate(539.535 343.004562) scale(0.1 -0.1)">
      <defs>
       <path id="DejaVuSans-Oblique-4d" d="M 1081 4666 
L 2028 4666 
L 2572 1522 
L 4378 4666 
L 5350 4666 
L 4441 0 
L 3828 0 
L 4622 4091 
L 2791 897 
L 2175 897 
L 1581 4103 
L 788 0 
L 172 0 
L 1081 4666 
z
" transform="scale(0.015625)"/>
       <path id="DejaVuSans-Oblique-41" d="M 2356 4666 
L 3072 4666 
L 3938 0 
L 3278 0 
L 3084 1197 
L 984 1197 
L 325 0 
L -341 0 
L 2356 4666 
z
M 2584 4044 
L 1275 1722 
L 2988 1722 
L 2584 4044 
z
" transform="scale(0.015625)"/>
       <path id="DejaVuSans-Oblique-50" d="M 1081 4666 
L 2541 4666 
Q 3178 4666 3512 4369 
Q 3847 4072 3847 3500 
Q 3847 2731 3353 2303 
Q 2859 1875 1966 1875 
L 1172 1875 
L 806 0 
L 172 0 
L 1081 4666 
z
M 1613 4147 
L 1275 2394 
L 2069 2394 
Q 2606 2394 2893 2669 
Q 3181 2944 3181 3456 
Q 3181 3784 2986 3965 
Q 2791 4147 2438 4147 
L 1613 4147 
z
" transform="scale(0.015625)"/>
       <path id="DejaVuSans-Oblique-45" d="M 1081 4666 
L 4031 4666 
L 3928 4134 
L 1606 4134 
L 1338 2753 
L 3566 2753 
L 3463 2222 
L 1234 2222 
L 909 531 
L 3284 531 
L 3181 0 
L 172 0 
L 1081 4666 
z
" transform="scale(0.015625)"/>
      </defs>
      <use xlink:href="#DejaVuSans-Oblique-4d" transform="translate(0 0.09375)"/>
      <use xlink:href="#DejaVuSans-Oblique-41" transform="translate(86.279297 0.09375)"/>
      <use xlink:href="#DejaVuSans-Oblique-41" transform="translate(154.6875 0.09375)"/>
      <use xlink:href="#DejaVuSans-Oblique-50" transform="translate(223.095703 0.09375)"/>
      <use xlink:href="#DejaVuSans-Oblique-45" transform="translate(283.398438 0.09375)"/>
     </g>
    </g>
   </g>
   <g id="matplotlib.axis_4">
    <g id="ytick_8">
     <g id="line2d_21">
      <g>
       <use xlink:href="#ma74d871db8" x="402.728104" y="314.728" style="stroke: #000000; stroke-width: 0.8"/>
      </g>
     </g>
     <g id="text_25">
      <!-- 0 -->
      <g transform="translate(389.365604 318.527219) scale(0.1 -0.1)">
       <use xlink:href="#DejaVuSans-30"/>
      </g>
     </g>
    </g>
    <g id="ytick_9">
     <g id="line2d_22">
      <g>
       <use xlink:href="#ma74d871db8" x="402.728104" y="277.564926" style="stroke: #000000; stroke-width: 0.8"/>
      </g>
     </g>
     <g id="text_26">
      <!-- 2 -->
      <g transform="translate(389.365604 281.364144) scale(0.1 -0.1)">
       <use xlink:href="#DejaVuSans-32"/>
      </g>
     </g>
    </g>
    <g id="ytick_10">
     <g id="line2d_23">
      <g>
       <use xlink:href="#ma74d871db8" x="402.728104" y="240.401851" style="stroke: #000000; stroke-width: 0.8"/>
      </g>
     </g>
     <g id="text_27">
      <!-- 4 -->
      <g transform="translate(389.365604 244.20107) scale(0.1 -0.1)">
       <use xlink:href="#DejaVuSans-34"/>
      </g>
     </g>
    </g>
    <g id="ytick_11">
     <g id="line2d_24">
      <g>
       <use xlink:href="#ma74d871db8" x="402.728104" y="203.238777" style="stroke: #000000; stroke-width: 0.8"/>
      </g>
     </g>
     <g id="text_28">
      <!-- 6 -->
      <g transform="translate(389.365604 207.037996) scale(0.1 -0.1)">
       <use xlink:href="#DejaVuSans-36"/>
      </g>
     </g>
    </g>
    <g id="ytick_12">
     <g id="line2d_25">
      <g>
       <use xlink:href="#ma74d871db8" x="402.728104" y="166.075703" style="stroke: #000000; stroke-width: 0.8"/>
      </g>
     </g>
     <g id="text_29">
      <!-- 8 -->
      <g transform="translate(389.365604 169.874921) scale(0.1 -0.1)">
       <use xlink:href="#DejaVuSans-38"/>
      </g>
     </g>
    </g>
    <g id="ytick_13">
     <g id="line2d_26">
      <g>
       <use xlink:href="#ma74d871db8" x="402.728104" y="128.912628" style="stroke: #000000; stroke-width: 0.8"/>
      </g>
     </g>
     <g id="text_30">
      <!-- 10 -->
      <g transform="translate(383.003104 132.711847) scale(0.1 -0.1)">
       <use xlink:href="#DejaVuSans-31"/>
       <use xlink:href="#DejaVuSans-30" transform="translate(63.623047 0)"/>
      </g>
     </g>
    </g>
    <g id="ytick_14">
     <g id="line2d_27">
      <g>
       <use xlink:href="#ma74d871db8" x="402.728104" y="91.749554" style="stroke: #000000; stroke-width: 0.8"/>
      </g>
     </g>
     <g id="text_31">
      <!-- 12 -->
      <g transform="translate(383.003104 95.548773) scale(0.1 -0.1)">
       <use xlink:href="#DejaVuSans-31"/>
       <use xlink:href="#DejaVuSans-32" transform="translate(63.623047 0)"/>
      </g>
     </g>
    </g>
    <g id="ytick_15">
     <g id="line2d_28">
      <g>
       <use xlink:href="#ma74d871db8" x="402.728104" y="54.586479" style="stroke: #000000; stroke-width: 0.8"/>
      </g>
     </g>
     <g id="text_32">
      <!-- 14 -->
      <g transform="translate(383.003104 58.385698) scale(0.1 -0.1)">
       <use xlink:href="#DejaVuSans-31"/>
       <use xlink:href="#DejaVuSans-34" transform="translate(63.623047 0)"/>
      </g>
     </g>
    </g>
    <g id="text_33">
     <!-- Density (%) -->
     <g transform="translate(376.923416 212.69) rotate(-90) scale(0.1 -0.1)">
      <use xlink:href="#DejaVuSans-44"/>
      <use xlink:href="#DejaVuSans-65" transform="translate(77.001953 0)"/>
      <use xlink:href="#DejaVuSans-6e" transform="translate(138.525391 0)"/>
      <use xlink:href="#DejaVuSans-73" transform="translate(201.904297 0)"/>
      <use xlink:href="#DejaVuSans-69" transform="translate(254.003906 0)"/>
      <use xlink:href="#DejaVuSans-74" transform="translate(281.787109 0)"/>
      <use xlink:href="#DejaVuSans-79" transform="translate(320.996094 0)"/>
      <use xlink:href="#DejaVuSans-20" transform="translate(380.175781 0)"/>
      <use xlink:href="#DejaVuSans-28" transform="translate(411.962891 0)"/>
      <use xlink:href="#DejaVuSans-25" transform="translate(450.976562 0)"/>
      <use xlink:href="#DejaVuSans-29" transform="translate(545.996094 0)"/>
     </g>
    </g>
   </g>
   <g id="line2d_29">
    <path d="M 416.742367 310.521071 
L 422.376242 308.886737 
L 428.010117 306.985338 
L 436.460929 303.833608 
L 443.503272 301.269752 
L 447.728678 299.930529 
L 451.954084 298.837236 
L 456.17949 298.046006 
L 460.404896 297.580893 
L 464.630302 297.429315 
L 468.855708 297.546019 
L 474.489583 298.003854 
L 482.940395 299.014149 
L 495.616613 300.535288 
L 501.250487 301.007883 
L 505.475893 301.191376 
L 509.7013 301.16985 
L 513.926706 300.894481 
L 518.152112 300.329478 
L 522.377518 299.459565 
L 526.602924 298.29565 
L 530.82833 296.878899 
L 536.462204 294.727135 
L 544.913016 291.455415 
L 549.138422 290.040881 
L 553.363828 288.867398 
L 557.589234 287.924306 
L 568.856984 285.610318 
L 571.673921 284.751226 
L 574.490858 283.635085 
L 577.307796 282.185369 
L 580.124733 280.323697 
L 582.94167 277.968066 
L 584.350139 276.577892 
L 585.758608 275.030868 
L 587.167076 273.315061 
L 588.575545 271.418265 
L 589.984014 269.328193 
L 591.392482 267.032734 
L 592.800951 264.520318 
L 595.617888 258.803801 
L 598.434826 252.115936 
L 601.251763 244.438923 
L 604.0687 235.821597 
L 606.885638 226.399001 
L 611.111044 211.295265 
L 615.33645 196.13471 
L 618.153387 186.770208 
L 619.561856 182.501979 
L 620.970325 178.594356 
L 622.378793 175.107514 
L 623.787262 172.097175 
L 625.195731 169.613177 
L 626.604199 167.69817 
L 628.012668 166.386512 
L 629.421137 165.703387 
L 630.829605 165.664191 
L 632.238074 166.274198 
L 633.646543 167.528509 
L 635.055011 169.412296 
L 636.46348 171.901309 
L 637.871949 174.962627 
L 639.280417 178.555621 
L 640.688886 182.633078 
L 642.097355 187.142451 
L 644.914292 197.228024 
L 647.731229 208.335674 
L 657.59051 248.713225 
L 660.407447 259.176691 
L 663.224385 268.72112 
L 666.041322 277.231583 
L 668.858259 284.659772 
L 671.675197 291.01211 
L 673.083665 293.798713 
L 674.492134 296.337207 
L 675.900603 298.638289 
L 677.309071 300.713858 
L 678.71754 302.576715 
L 680.126009 304.240286 
L 681.534477 305.718374 
L 682.942946 307.024937 
L 684.351415 308.173889 
L 687.168352 310.053391 
L 689.985289 311.461357 
L 692.802227 312.492944 
L 695.619164 313.23169 
L 697.027633 313.51389 
L 697.027633 313.51389 
" clip-path="url(#pb3bb903848)" style="fill: none; stroke: #008b8b; stroke-width: 1.5; stroke-linecap: square"/>
   </g>
   <g id="line2d_30">
    <path d="M 416.742367 314.448305 
L 423.784711 314.115372 
L 429.418585 313.672658 
L 435.05246 313.028011 
L 440.686335 312.150508 
L 446.320209 311.026054 
L 451.954084 309.658698 
L 457.587959 308.062961 
L 463.221833 306.246764 
L 468.855708 304.195642 
L 474.489583 301.881023 
L 480.123457 299.311412 
L 489.982738 294.680305 
L 492.799675 293.532315 
L 495.616613 292.564793 
L 498.43355 291.831705 
L 501.250487 291.375621 
L 504.067425 291.221363 
L 506.884362 291.371477 
L 509.7013 291.804371 
L 512.518237 292.475529 
L 516.743643 293.786912 
L 523.785986 296.135467 
L 526.602924 296.912 
L 529.419861 297.505501 
L 532.236798 297.87721 
L 535.053736 298.004935 
L 537.870673 297.881814 
L 540.68761 297.514127 
L 543.504548 296.918772 
L 546.321485 296.120881 
L 550.546891 294.61405 
L 554.772297 292.845847 
L 567.448515 287.27537 
L 571.673921 285.693087 
L 575.899327 284.354494 
L 580.124733 283.269081 
L 584.350139 282.412012 
L 589.984014 281.51443 
L 597.026357 280.377649 
L 599.843294 279.734265 
L 602.660232 278.866174 
L 605.477169 277.682706 
L 608.294107 276.091115 
L 611.111044 274.004685 
L 612.519513 272.752722 
L 615.33645 269.797336 
L 618.153387 266.216682 
L 620.970325 262.013965 
L 623.787262 257.230917 
L 626.604199 251.947567 
L 630.829605 243.342309 
L 639.280417 225.572036 
L 642.097355 220.082746 
L 644.914292 215.065467 
L 647.731229 210.64976 
L 649.139698 208.702814 
L 650.548167 206.946307 
L 651.956635 205.391237 
L 653.365104 204.047575 
L 654.773573 202.924337 
L 656.182041 202.02964 
L 657.59051 201.370747 
L 658.998979 200.954089 
L 660.407447 200.785265 
L 661.815916 200.869006 
L 663.224385 201.209113 
L 664.632853 201.808374 
L 666.041322 202.668441 
L 667.449791 203.789706 
L 668.858259 205.17115 
L 670.266728 206.810197 
L 671.675197 208.702566 
L 673.083665 210.842141 
L 674.492134 213.220859 
L 677.309071 218.653295 
L 680.126009 224.894348 
L 682.942946 231.806497 
L 687.168352 243.064729 
L 697.027633 270.108745 
L 697.027633 270.108745 
" clip-path="url(#pb3bb903848)" style="fill: none; stroke: #ff8c00; stroke-width: 1.5; stroke-linecap: square"/>
   </g>
   <g id="patch_11">
    <path d="M 402.728104 314.728 
L 402.728104 52.152 
" style="fill: none; stroke: #000000; stroke-width: 0.8; stroke-linejoin: miter; stroke-linecap: square"/>
   </g>
   <g id="patch_12">
    <path d="M 711.041896 314.728 
L 711.041896 52.152 
" style="fill: none; stroke: #000000; stroke-width: 0.8; stroke-linejoin: miter; stroke-linecap: square"/>
   </g>
   <g id="patch_13">
    <path d="M 402.728104 314.728 
L 711.041896 314.728 
" style="fill: none; stroke: #000000; stroke-width: 0.8; stroke-linejoin: miter; stroke-linecap: square"/>
   </g>
   <g id="patch_14">
    <path d="M 402.728104 52.152 
L 711.041896 52.152 
" style="fill: none; stroke: #000000; stroke-width: 0.8; stroke-linejoin: miter; stroke-linecap: square"/>
   </g>
   <g id="text_34">
    <!-- $MAAPE$ -->
    <g transform="translate(536.065 46.152) scale(0.12 -0.12)">
     <use xlink:href="#DejaVuSans-Oblique-4d" transform="translate(0 0.09375)"/>
     <use xlink:href="#DejaVuSans-Oblique-41" transform="translate(86.279297 0.09375)"/>
     <use xlink:href="#DejaVuSans-Oblique-41" transform="translate(154.6875 0.09375)"/>
     <use xlink:href="#DejaVuSans-Oblique-50" transform="translate(223.095703 0.09375)"/>
     <use xlink:href="#DejaVuSans-Oblique-45" transform="translate(283.398438 0.09375)"/>
    </g>
   </g>
   <g id="legend_2">
    <g id="patch_15">
     <path d="M 409.728104 89.50825 
L 497.710916 89.50825 
Q 499.710916 89.50825 499.710916 87.50825 
L 499.710916 59.152 
Q 499.710916 57.152 497.710916 57.152 
L 409.728104 57.152 
Q 407.728104 57.152 407.728104 59.152 
L 407.728104 87.50825 
Q 407.728104 89.50825 409.728104 89.50825 
z
" style="fill: #ffffff; opacity: 0.8; stroke: #cccccc; stroke-linejoin: miter"/>
    </g>
    <g id="patch_16">
     <path d="M 411.728104 68.750437 
L 431.728104 68.750437 
L 431.728104 61.750437 
L 411.728104 61.750437 
z
" style="fill: #ff8c00; fill-opacity: 0.25; stroke: #ff8c00; stroke-linejoin: miter"/>
    </g>
    <g id="text_35">
     <!-- Single-step -->
     <g transform="translate(439.728104 68.750437) scale(0.1 -0.1)">
      <use xlink:href="#DejaVuSans-53"/>
      <use xlink:href="#DejaVuSans-69" transform="translate(63.476562 0)"/>
      <use xlink:href="#DejaVuSans-6e" transform="translate(91.259766 0)"/>
      <use xlink:href="#DejaVuSans-67" transform="translate(154.638672 0)"/>
      <use xlink:href="#DejaVuSans-6c" transform="translate(218.115234 0)"/>
      <use xlink:href="#DejaVuSans-65" transform="translate(245.898438 0)"/>
      <use xlink:href="#DejaVuSans-2d" transform="translate(307.421875 0)"/>
      <use xlink:href="#DejaVuSans-73" transform="translate(343.505859 0)"/>
      <use xlink:href="#DejaVuSans-74" transform="translate(395.605469 0)"/>
      <use xlink:href="#DejaVuSans-65" transform="translate(434.814453 0)"/>
      <use xlink:href="#DejaVuSans-70" transform="translate(496.337891 0)"/>
     </g>
    </g>
    <g id="patch_17">
     <path d="M 411.728104 83.428562 
L 431.728104 83.428562 
L 431.728104 76.428562 
L 411.728104 76.428562 
z
" style="fill: #008b8b; fill-opacity: 0.25; stroke: #008b8b; stroke-linejoin: miter"/>
    </g>
    <g id="text_36">
     <!-- Multistep -->
     <g transform="translate(439.728104 83.428562) scale(0.1 -0.1)">
      <use xlink:href="#DejaVuSans-4d"/>
      <use xlink:href="#DejaVuSans-75" transform="translate(86.279297 0)"/>
      <use xlink:href="#DejaVuSans-6c" transform="translate(149.658203 0)"/>
      <use xlink:href="#DejaVuSans-74" transform="translate(177.441406 0)"/>
      <use xlink:href="#DejaVuSans-69" transform="translate(216.650391 0)"/>
      <use xlink:href="#DejaVuSans-73" transform="translate(244.433594 0)"/>
      <use xlink:href="#DejaVuSans-74" transform="translate(296.533203 0)"/>
      <use xlink:href="#DejaVuSans-65" transform="translate(335.742188 0)"/>
      <use xlink:href="#DejaVuSans-70" transform="translate(397.265625 0)"/>
     </g>
    </g>
   </g>
  </g>
  <g id="axes_3">
   <g id="patch_18">
    <path d="M 760.886208 314.728 
L 1069.2 314.728 
L 1069.2 52.152 
L 760.886208 52.152 
z
" style="fill: #ffffff"/>
   </g>
   <g id="FillBetweenPolyCollection_5">
    <defs>
     <path id="mfeb8bcae2e" d="M 780.739747 -92.730992 
L 780.739747 -45.272 
L 792.4183 -45.272 
L 804.096853 -45.272 
L 815.775406 -45.272 
L 827.453958 -45.272 
L 839.132511 -45.272 
L 850.811064 -45.272 
L 862.489617 -45.272 
L 874.168169 -45.272 
L 885.846722 -45.272 
L 897.525275 -45.272 
L 909.203828 -45.272 
L 920.88238 -45.272 
L 932.560933 -45.272 
L 944.239486 -45.272 
L 955.918038 -45.272 
L 967.596591 -45.272 
L 979.275144 -45.272 
L 990.953697 -45.272 
L 1002.632249 -45.272 
L 1014.310802 -45.272 
L 1025.989355 -45.272 
L 1037.667908 -45.272 
L 1049.34646 -45.272 
L 1049.34646 -45.272 
L 1049.34646 -45.272 
L 1037.667908 -45.272 
L 1025.989355 -45.272 
L 1014.310802 -45.272 
L 1002.632249 -45.272 
L 990.953697 -45.272 
L 979.275144 -45.272 
L 967.596591 -45.272 
L 955.918038 -45.272 
L 944.239486 -47.097346 
L 932.560933 -90.905646 
L 920.88238 -178.522247 
L 909.203828 -295.344381 
L 897.525275 -229.63193 
L 885.846722 -107.333759 
L 874.168169 -107.333759 
L 862.489617 -83.604263 
L 850.811064 -87.254954 
L 839.132511 -76.302879 
L 827.453958 -69.001496 
L 815.775406 -78.128225 
L 804.096853 -69.001496 
L 792.4183 -90.905646 
L 780.739747 -92.730992 
z
" style="stroke: #008b8b"/>
    </defs>
    <g clip-path="url(#pd44d9eeaa3)">
     <use xlink:href="#mfeb8bcae2e" x="0" y="360" style="fill: #008b8b; fill-opacity: 0.25; stroke: #008b8b"/>
    </g>
   </g>
   <g id="FillBetweenPolyCollection_6">
    <defs>
     <path id="mca4c04c862" d="M 780.739747 -45.272 
L 780.739747 -45.272 
L 792.4183 -45.272 
L 804.096853 -45.272 
L 815.775406 -45.272 
L 827.453958 -45.272 
L 839.132511 -45.272 
L 850.811064 -45.272 
L 862.489617 -45.272 
L 874.168169 -45.272 
L 885.846722 -45.272 
L 897.525275 -45.272 
L 909.203828 -45.272 
L 920.88238 -45.272 
L 932.560933 -45.272 
L 944.239486 -45.272 
L 955.918038 -45.272 
L 967.596591 -45.272 
L 979.275144 -45.272 
L 990.953697 -45.272 
L 1002.632249 -45.272 
L 1014.310802 -45.272 
L 1025.989355 -45.272 
L 1037.667908 -45.272 
L 1049.34646 -45.272 
L 1049.34646 -59.874767 
L 1049.34646 -59.874767 
L 1037.667908 -58.049421 
L 1025.989355 -72.652188 
L 1014.310802 -96.381684 
L 1002.632249 -83.604263 
L 990.953697 -103.683067 
L 979.275144 -100.032375 
L 967.596591 -110.98445 
L 955.918038 -109.159105 
L 944.239486 -120.11118 
L 932.560933 -169.395518 
L 920.88238 -134.713946 
L 909.203828 -94.556338 
L 897.525275 -98.20703 
L 885.846722 -81.778917 
L 874.168169 -67.17615 
L 862.489617 -76.302879 
L 850.811064 -79.953571 
L 839.132511 -65.350804 
L 827.453958 -67.17615 
L 815.775406 -76.302879 
L 804.096853 -79.953571 
L 792.4183 -59.874767 
L 780.739747 -45.272 
z
" style="stroke: #ff8c00"/>
    </defs>
    <g clip-path="url(#pd44d9eeaa3)">
     <use xlink:href="#mca4c04c862" x="0" y="360" style="fill: #ff8c00; fill-opacity: 0.25; stroke: #ff8c00"/>
    </g>
   </g>
   <g id="matplotlib.axis_5">
    <g id="xtick_12">
     <g id="line2d_31">
      <g>
       <use xlink:href="#mcb29b4ec7d" x="761.965188" y="314.728" style="stroke: #000000; stroke-width: 0.8"/>
      </g>
     </g>
     <g id="text_37">
      <!-- 0.1 -->
      <g transform="translate(754.013626 329.326437) scale(0.1 -0.1)">
       <use xlink:href="#DejaVuSans-30"/>
       <use xlink:href="#DejaVuSans-2e" transform="translate(63.623047 0)"/>
       <use xlink:href="#DejaVuSans-31" transform="translate(95.410156 0)"/>
      </g>
     </g>
    </g>
    <g id="xtick_13">
     <g id="line2d_32">
      <g>
       <use xlink:href="#mcb29b4ec7d" x="799.552087" y="314.728" style="stroke: #000000; stroke-width: 0.8"/>
      </g>
     </g>
     <g id="text_38">
      <!-- 0.2 -->
      <g transform="translate(791.600524 329.326437) scale(0.1 -0.1)">
       <use xlink:href="#DejaVuSans-30"/>
       <use xlink:href="#DejaVuSans-2e" transform="translate(63.623047 0)"/>
       <use xlink:href="#DejaVuSans-32" transform="translate(95.410156 0)"/>
      </g>
     </g>
    </g>
    <g id="xtick_14">
     <g id="line2d_33">
      <g>
       <use xlink:href="#mcb29b4ec7d" x="837.138986" y="314.728" style="stroke: #000000; stroke-width: 0.8"/>
      </g>
     </g>
     <g id="text_39">
      <!-- 0.3 -->
      <g transform="translate(829.187423 329.326437) scale(0.1 -0.1)">
       <use xlink:href="#DejaVuSans-30"/>
       <use xlink:href="#DejaVuSans-2e" transform="translate(63.623047 0)"/>
       <use xlink:href="#DejaVuSans-33" transform="translate(95.410156 0)"/>
      </g>
     </g>
    </g>
    <g id="xtick_15">
     <g id="line2d_34">
      <g>
       <use xlink:href="#mcb29b4ec7d" x="874.725884" y="314.728" style="stroke: #000000; stroke-width: 0.8"/>
      </g>
     </g>
     <g id="text_40">
      <!-- 0.4 -->
      <g transform="translate(866.774322 329.326437) scale(0.1 -0.1)">
       <use xlink:href="#DejaVuSans-30"/>
       <use xlink:href="#DejaVuSans-2e" transform="translate(63.623047 0)"/>
       <use xlink:href="#DejaVuSans-34" transform="translate(95.410156 0)"/>
      </g>
     </g>
    </g>
    <g id="xtick_16">
     <g id="line2d_35">
      <g>
       <use xlink:href="#mcb29b4ec7d" x="912.312783" y="314.728" style="stroke: #000000; stroke-width: 0.8"/>
      </g>
     </g>
     <g id="text_41">
      <!-- 0.5 -->
      <g transform="translate(904.36122 329.326437) scale(0.1 -0.1)">
       <use xlink:href="#DejaVuSans-30"/>
       <use xlink:href="#DejaVuSans-2e" transform="translate(63.623047 0)"/>
       <use xlink:href="#DejaVuSans-35" transform="translate(95.410156 0)"/>
      </g>
     </g>
    </g>
    <g id="xtick_17">
     <g id="line2d_36">
      <g>
       <use xlink:href="#mcb29b4ec7d" x="949.899681" y="314.728" style="stroke: #000000; stroke-width: 0.8"/>
      </g>
     </g>
     <g id="text_42">
      <!-- 0.6 -->
      <g transform="translate(941.948119 329.326437) scale(0.1 -0.1)">
       <use xlink:href="#DejaVuSans-30"/>
       <use xlink:href="#DejaVuSans-2e" transform="translate(63.623047 0)"/>
       <use xlink:href="#DejaVuSans-36" transform="translate(95.410156 0)"/>
      </g>
     </g>
    </g>
    <g id="xtick_18">
     <g id="line2d_37">
      <g>
       <use xlink:href="#mcb29b4ec7d" x="987.48658" y="314.728" style="stroke: #000000; stroke-width: 0.8"/>
      </g>
     </g>
     <g id="text_43">
      <!-- 0.7 -->
      <g transform="translate(979.535017 329.326437) scale(0.1 -0.1)">
       <use xlink:href="#DejaVuSans-30"/>
       <use xlink:href="#DejaVuSans-2e" transform="translate(63.623047 0)"/>
       <use xlink:href="#DejaVuSans-37" transform="translate(95.410156 0)"/>
      </g>
     </g>
    </g>
    <g id="xtick_19">
     <g id="line2d_38">
      <g>
       <use xlink:href="#mcb29b4ec7d" x="1025.073478" y="314.728" style="stroke: #000000; stroke-width: 0.8"/>
      </g>
     </g>
     <g id="text_44">
      <!-- 0.8 -->
      <g transform="translate(1017.121916 329.326437) scale(0.1 -0.1)">
       <use xlink:href="#DejaVuSans-30"/>
       <use xlink:href="#DejaVuSans-2e" transform="translate(63.623047 0)"/>
       <use xlink:href="#DejaVuSans-38" transform="translate(95.410156 0)"/>
      </g>
     </g>
    </g>
    <g id="xtick_20">
     <g id="line2d_39">
      <g>
       <use xlink:href="#mcb29b4ec7d" x="1062.660377" y="314.728" style="stroke: #000000; stroke-width: 0.8"/>
      </g>
     </g>
     <g id="text_45">
      <!-- 0.9 -->
      <g transform="translate(1054.708814 329.326437) scale(0.1 -0.1)">
       <use xlink:href="#DejaVuSans-30"/>
       <use xlink:href="#DejaVuSans-2e" transform="translate(63.623047 0)"/>
       <use xlink:href="#DejaVuSans-39" transform="translate(95.410156 0)"/>
      </g>
     </g>
    </g>
    <g id="text_46">
     <!-- $NRMSE$ -->
     <g transform="translate(897.143104 343.004562) scale(0.1 -0.1)">
      <defs>
       <path id="DejaVuSans-Oblique-4e" d="M 1081 4666 
L 1931 4666 
L 3219 666 
L 4000 4666 
L 4616 4666 
L 3706 0 
L 2853 0 
L 1569 4025 
L 788 0 
L 172 0 
L 1081 4666 
z
" transform="scale(0.015625)"/>
       <path id="DejaVuSans-Oblique-53" d="M 3859 4513 
L 3738 3897 
Q 3422 4066 3111 4152 
Q 2800 4238 2509 4238 
Q 1944 4238 1609 3991 
Q 1275 3744 1275 3334 
Q 1275 3109 1398 2989 
Q 1522 2869 2034 2731 
L 2413 2638 
Q 3053 2472 3303 2217 
Q 3553 1963 3553 1503 
Q 3553 797 2998 353 
Q 2444 -91 1538 -91 
Q 1166 -91 791 -17 
Q 416 56 38 206 
L 166 856 
Q 513 641 861 531 
Q 1209 422 1556 422 
Q 2147 422 2503 684 
Q 2859 947 2859 1369 
Q 2859 1650 2717 1795 
Q 2575 1941 2106 2059 
L 1728 2156 
Q 1081 2325 845 2545 
Q 609 2766 609 3163 
Q 609 3859 1145 4304 
Q 1681 4750 2541 4750 
Q 2875 4750 3203 4690 
Q 3531 4631 3859 4513 
z
" transform="scale(0.015625)"/>
      </defs>
      <use xlink:href="#DejaVuSans-Oblique-4e" transform="translate(0 0.78125)"/>
      <use xlink:href="#DejaVuSans-Oblique-52" transform="translate(74.804688 0.78125)"/>
      <use xlink:href="#DejaVuSans-Oblique-4d" transform="translate(144.287109 0.78125)"/>
      <use xlink:href="#DejaVuSans-Oblique-53" transform="translate(230.566406 0.78125)"/>
      <use xlink:href="#DejaVuSans-Oblique-45" transform="translate(294.042969 0.78125)"/>
     </g>
    </g>
   </g>
   <g id="matplotlib.axis_6">
    <g id="ytick_16">
     <g id="line2d_40">
      <g>
       <use xlink:href="#ma74d871db8" x="760.886208" y="314.728" style="stroke: #000000; stroke-width: 0.8"/>
      </g>
     </g>
     <g id="text_47">
      <!-- 0 -->
      <g transform="translate(747.523708 318.527219) scale(0.1 -0.1)">
       <use xlink:href="#DejaVuSans-30"/>
      </g>
     </g>
    </g>
    <g id="ytick_17">
     <g id="line2d_41">
      <g>
       <use xlink:href="#ma74d871db8" x="760.886208" y="273.767239" style="stroke: #000000; stroke-width: 0.8"/>
      </g>
     </g>
     <g id="text_48">
      <!-- 2 -->
      <g transform="translate(747.523708 277.566458) scale(0.1 -0.1)">
       <use xlink:href="#DejaVuSans-32"/>
      </g>
     </g>
    </g>
    <g id="ytick_18">
     <g id="line2d_42">
      <g>
       <use xlink:href="#ma74d871db8" x="760.886208" y="232.806478" style="stroke: #000000; stroke-width: 0.8"/>
      </g>
     </g>
     <g id="text_49">
      <!-- 4 -->
      <g transform="translate(747.523708 236.605697) scale(0.1 -0.1)">
       <use xlink:href="#DejaVuSans-34"/>
      </g>
     </g>
    </g>
    <g id="ytick_19">
     <g id="line2d_43">
      <g>
       <use xlink:href="#ma74d871db8" x="760.886208" y="191.845718" style="stroke: #000000; stroke-width: 0.8"/>
      </g>
     </g>
     <g id="text_50">
      <!-- 6 -->
      <g transform="translate(747.523708 195.644936) scale(0.1 -0.1)">
       <use xlink:href="#DejaVuSans-36"/>
      </g>
     </g>
    </g>
    <g id="ytick_20">
     <g id="line2d_44">
      <g>
       <use xlink:href="#ma74d871db8" x="760.886208" y="150.884957" style="stroke: #000000; stroke-width: 0.8"/>
      </g>
     </g>
     <g id="text_51">
      <!-- 8 -->
      <g transform="translate(747.523708 154.684176) scale(0.1 -0.1)">
       <use xlink:href="#DejaVuSans-38"/>
      </g>
     </g>
    </g>
    <g id="ytick_21">
     <g id="line2d_45">
      <g>
       <use xlink:href="#ma74d871db8" x="760.886208" y="109.924196" style="stroke: #000000; stroke-width: 0.8"/>
      </g>
     </g>
     <g id="text_52">
      <!-- 10 -->
      <g transform="translate(741.161208 113.723415) scale(0.1 -0.1)">
       <use xlink:href="#DejaVuSans-31"/>
       <use xlink:href="#DejaVuSans-30" transform="translate(63.623047 0)"/>
      </g>
     </g>
    </g>
    <g id="ytick_22">
     <g id="line2d_46">
      <g>
       <use xlink:href="#ma74d871db8" x="760.886208" y="68.963435" style="stroke: #000000; stroke-width: 0.8"/>
      </g>
     </g>
     <g id="text_53">
      <!-- 12 -->
      <g transform="translate(741.161208 72.762654) scale(0.1 -0.1)">
       <use xlink:href="#DejaVuSans-31"/>
       <use xlink:href="#DejaVuSans-32" transform="translate(63.623047 0)"/>
      </g>
     </g>
    </g>
    <g id="text_54">
     <!-- Density (%) -->
     <g transform="translate(735.08152 212.69) rotate(-90) scale(0.1 -0.1)">
      <use xlink:href="#DejaVuSans-44"/>
      <use xlink:href="#DejaVuSans-65" transform="translate(77.001953 0)"/>
      <use xlink:href="#DejaVuSans-6e" transform="translate(138.525391 0)"/>
      <use xlink:href="#DejaVuSans-73" transform="translate(201.904297 0)"/>
      <use xlink:href="#DejaVuSans-69" transform="translate(254.003906 0)"/>
      <use xlink:href="#DejaVuSans-74" transform="translate(281.787109 0)"/>
      <use xlink:href="#DejaVuSans-79" transform="translate(320.996094 0)"/>
      <use xlink:href="#DejaVuSans-20" transform="translate(380.175781 0)"/>
      <use xlink:href="#DejaVuSans-28" transform="translate(411.962891 0)"/>
      <use xlink:href="#DejaVuSans-25" transform="translate(450.976562 0)"/>
      <use xlink:href="#DejaVuSans-29" transform="translate(545.996094 0)"/>
     </g>
    </g>
   </g>
   <g id="line2d_47">
    <path d="M 774.900471 291.613192 
L 777.717408 287.549576 
L 780.534346 283.966401 
L 781.942814 282.440391 
L 783.351283 281.125887 
L 784.759752 280.039566 
L 786.16822 279.189877 
L 787.576689 278.576849 
L 788.985158 278.192391 
L 790.393626 278.021045 
L 791.802095 278.041146 
L 793.210564 278.226279 
L 796.027501 278.972283 
L 800.252907 280.58152 
L 804.478313 282.203027 
L 807.295251 283.112152 
L 811.520657 284.17233 
L 815.746063 284.945944 
L 819.971469 285.492929 
L 822.788406 285.702406 
L 825.605343 285.732985 
L 828.422281 285.531709 
L 831.239218 285.061229 
L 834.056155 284.313973 
L 836.873093 283.316417 
L 841.098499 281.470406 
L 846.732373 278.653905 
L 850.957779 276.362961 
L 853.774717 274.688048 
L 856.591654 272.814573 
L 859.408591 270.667822 
L 862.225529 268.179838 
L 865.042466 265.28466 
L 867.859403 261.897219 
L 870.676341 257.88328 
L 872.084809 255.579635 
L 873.493278 253.035315 
L 874.901747 250.212756 
L 876.310215 247.071649 
L 877.718684 243.570993 
L 879.127153 239.671725 
L 880.535621 235.339789 
L 881.94409 230.549489 
L 883.352559 225.28688 
L 886.169496 213.366508 
L 888.986433 199.810967 
L 897.437246 156.416578 
L 898.845714 150.163599 
L 900.254183 144.58171 
L 901.662652 139.806322 
L 903.07112 135.957351 
L 904.479589 133.134831 
L 905.888058 131.415391 
L 907.296526 130.849759 
L 908.704995 131.461392 
L 910.113464 133.246243 
L 911.521932 136.173637 
L 912.930401 140.188138 
L 914.33887 145.212269 
L 915.747338 151.149896 
L 917.155807 157.890054 
L 919.972744 173.284444 
L 922.789682 190.365361 
L 929.832025 234.044391 
L 932.648962 249.856062 
L 935.4659 263.941079 
L 936.874368 270.251338 
L 938.282837 276.050838 
L 939.691306 281.335223 
L 941.099774 286.108974 
L 942.508243 290.384297 
L 943.916712 294.179973 
L 945.32518 297.520198 
L 946.733649 300.433424 
L 948.142118 302.951236 
L 949.550586 305.107273 
L 950.959055 306.936231 
L 952.367524 308.47295 
L 953.775992 309.751613 
L 955.184461 310.805075 
L 956.59293 311.664311 
L 958.001398 312.358008 
L 960.818336 313.35053 
L 963.635273 313.958694 
L 966.45221 314.315596 
L 970.677616 314.578425 
L 977.71996 314.70581 
L 1001.663927 314.727996 
L 1055.185737 314.728 
L 1055.185737 314.728 
" clip-path="url(#pd44d9eeaa3)" style="fill: none; stroke: #008b8b; stroke-width: 1.5; stroke-linecap: square"/>
   </g>
   <g id="line2d_48">
    <path d="M 774.900471 309.514567 
L 777.717408 308.150486 
L 780.534346 306.601484 
L 784.759752 303.987214 
L 791.802095 299.223249 
L 796.027501 296.439875 
L 800.252907 293.962442 
L 803.069845 292.562902 
L 805.886782 291.402036 
L 808.703719 290.491662 
L 811.520657 289.824855 
L 814.337594 289.37714 
L 818.563 289.028214 
L 824.196875 288.897667 
L 831.239218 288.72143 
L 835.464624 288.418534 
L 841.098499 287.752665 
L 867.859403 283.831217 
L 870.676341 283.133021 
L 873.493278 282.234358 
L 876.310215 281.097671 
L 879.127153 279.696133 
L 881.94409 278.015116 
L 884.761027 276.052025 
L 887.577965 273.814788 
L 890.394902 271.319602 
L 893.211839 268.588623 
L 897.437246 264.108769 
L 901.662652 259.263365 
L 908.704995 250.743988 
L 914.33887 244.028148 
L 917.155807 240.900043 
L 919.972744 238.034523 
L 922.789682 235.513813 
L 925.606619 233.413123 
L 928.423556 231.794367 
L 929.832025 231.180039 
L 931.240494 230.700644 
L 932.648962 230.357984 
L 934.057431 230.152309 
L 935.4659 230.082317 
L 936.874368 230.145198 
L 938.282837 230.336708 
L 939.691306 230.651276 
L 942.508243 231.621531 
L 945.32518 232.990659 
L 948.142118 234.682798 
L 950.959055 236.617519 
L 955.184461 239.801969 
L 965.043742 247.400116 
L 969.269148 250.360359 
L 973.494554 253.038184 
L 977.71996 255.43694 
L 983.353834 258.293345 
L 997.438521 265.099009 
L 1001.663927 267.436378 
L 1005.889333 270.034568 
L 1010.114739 272.926746 
L 1014.340145 276.115589 
L 1018.565551 279.566614 
L 1025.607895 285.6808 
L 1032.650238 291.770897 
L 1036.875644 295.177683 
L 1041.10105 298.291973 
L 1045.326456 301.075683 
L 1049.551862 303.529221 
L 1053.777268 305.676354 
L 1055.185737 306.329218 
L 1055.185737 306.329218 
" clip-path="url(#pd44d9eeaa3)" style="fill: none; stroke: #ff8c00; stroke-width: 1.5; stroke-linecap: square"/>
   </g>
   <g id="patch_19">
    <path d="M 760.886208 314.728 
L 760.886208 52.152 
" style="fill: none; stroke: #000000; stroke-width: 0.8; stroke-linejoin: miter; stroke-linecap: square"/>
   </g>
   <g id="patch_20">
    <path d="M 1069.2 314.728 
L 1069.2 52.152 
" style="fill: none; stroke: #000000; stroke-width: 0.8; stroke-linejoin: miter; stroke-linecap: square"/>
   </g>
   <g id="patch_21">
    <path d="M 760.886208 314.728 
L 1069.2 314.728 
" style="fill: none; stroke: #000000; stroke-width: 0.8; stroke-linejoin: miter; stroke-linecap: square"/>
   </g>
   <g id="patch_22">
    <path d="M 760.886208 52.152 
L 1069.2 52.152 
" style="fill: none; stroke: #000000; stroke-width: 0.8; stroke-linejoin: miter; stroke-linecap: square"/>
   </g>
   <g id="text_55">
    <!-- $NRMSE$ -->
    <g transform="translate(893.563104 46.152) scale(0.12 -0.12)">
     <use xlink:href="#DejaVuSans-Oblique-4e" transform="translate(0 0.78125)"/>
     <use xlink:href="#DejaVuSans-Oblique-52" transform="translate(74.804688 0.78125)"/>
     <use xlink:href="#DejaVuSans-Oblique-4d" transform="translate(144.287109 0.78125)"/>
     <use xlink:href="#DejaVuSans-Oblique-53" transform="translate(230.566406 0.78125)"/>
     <use xlink:href="#DejaVuSans-Oblique-45" transform="translate(294.042969 0.78125)"/>
    </g>
   </g>
   <g id="legend_3">
    <g id="patch_23">
     <path d="M 974.217188 89.50825 
L 1062.2 89.50825 
Q 1064.2 89.50825 1064.2 87.50825 
L 1064.2 59.152 
Q 1064.2 57.152 1062.2 57.152 
L 974.217188 57.152 
Q 972.217188 57.152 972.217188 59.152 
L 972.217188 87.50825 
Q 972.217188 89.50825 974.217188 89.50825 
z
" style="fill: #ffffff; opacity: 0.8; stroke: #cccccc; stroke-linejoin: miter"/>
    </g>
    <g id="patch_24">
     <path d="M 976.217188 68.750437 
L 996.217188 68.750437 
L 996.217188 61.750437 
L 976.217188 61.750437 
z
" style="fill: #ff8c00; fill-opacity: 0.25; stroke: #ff8c00; stroke-linejoin: miter"/>
    </g>
    <g id="text_56">
     <!-- Single-step -->
     <g transform="translate(1004.217188 68.750437) scale(0.1 -0.1)">
      <use xlink:href="#DejaVuSans-53"/>
      <use xlink:href="#DejaVuSans-69" transform="translate(63.476562 0)"/>
      <use xlink:href="#DejaVuSans-6e" transform="translate(91.259766 0)"/>
      <use xlink:href="#DejaVuSans-67" transform="translate(154.638672 0)"/>
      <use xlink:href="#DejaVuSans-6c" transform="translate(218.115234 0)"/>
      <use xlink:href="#DejaVuSans-65" transform="translate(245.898438 0)"/>
      <use xlink:href="#DejaVuSans-2d" transform="translate(307.421875 0)"/>
      <use xlink:href="#DejaVuSans-73" transform="translate(343.505859 0)"/>
      <use xlink:href="#DejaVuSans-74" transform="translate(395.605469 0)"/>
      <use xlink:href="#DejaVuSans-65" transform="translate(434.814453 0)"/>
      <use xlink:href="#DejaVuSans-70" transform="translate(496.337891 0)"/>
     </g>
    </g>
    <g id="patch_25">
     <path d="M 976.217188 83.428562 
L 996.217188 83.428562 
L 996.217188 76.428562 
L 976.217188 76.428562 
z
" style="fill: #008b8b; fill-opacity: 0.25; stroke: #008b8b; stroke-linejoin: miter"/>
    </g>
    <g id="text_57">
     <!-- Multistep -->
     <g transform="translate(1004.217188 83.428562) scale(0.1 -0.1)">
      <use xlink:href="#DejaVuSans-4d"/>
      <use xlink:href="#DejaVuSans-75" transform="translate(86.279297 0)"/>
      <use xlink:href="#DejaVuSans-6c" transform="translate(149.658203 0)"/>
      <use xlink:href="#DejaVuSans-74" transform="translate(177.441406 0)"/>
      <use xlink:href="#DejaVuSans-69" transform="translate(216.650391 0)"/>
      <use xlink:href="#DejaVuSans-73" transform="translate(244.433594 0)"/>
      <use xlink:href="#DejaVuSans-74" transform="translate(296.533203 0)"/>
      <use xlink:href="#DejaVuSans-65" transform="translate(335.742188 0)"/>
      <use xlink:href="#DejaVuSans-70" transform="translate(397.265625 0)"/>
     </g>
    </g>
   </g>
  </g>
  <g id="text_58">
   <!-- Histograms of Accuracy Measures -->
   <g transform="translate(438.22875 16.318125) scale(0.12 -0.12)">
    <defs>
     <path id="DejaVuSans-48" d="M 628 4666 
L 1259 4666 
L 1259 2753 
L 3553 2753 
L 3553 4666 
L 4184 4666 
L 4184 0 
L 3553 0 
L 3553 2222 
L 1259 2222 
L 1259 0 
L 628 0 
L 628 4666 
z
" transform="scale(0.015625)"/>
     <path id="DejaVuSans-6f" d="M 1959 3097 
Q 1497 3097 1228 2736 
Q 959 2375 959 1747 
Q 959 1119 1226 758 
Q 1494 397 1959 397 
Q 2419 397 2687 759 
Q 2956 1122 2956 1747 
Q 2956 2369 2687 2733 
Q 2419 3097 1959 3097 
z
M 1959 3584 
Q 2709 3584 3137 3096 
Q 3566 2609 3566 1747 
Q 3566 888 3137 398 
Q 2709 -91 1959 -91 
Q 1206 -91 779 398 
Q 353 888 353 1747 
Q 353 2609 779 3096 
Q 1206 3584 1959 3584 
z
" transform="scale(0.015625)"/>
     <path id="DejaVuSans-72" d="M 2631 2963 
Q 2534 3019 2420 3045 
Q 2306 3072 2169 3072 
Q 1681 3072 1420 2755 
Q 1159 2438 1159 1844 
L 1159 0 
L 581 0 
L 581 3500 
L 1159 3500 
L 1159 2956 
Q 1341 3275 1631 3429 
Q 1922 3584 2338 3584 
Q 2397 3584 2469 3576 
Q 2541 3569 2628 3553 
L 2631 2963 
z
" transform="scale(0.015625)"/>
     <path id="DejaVuSans-61" d="M 2194 1759 
Q 1497 1759 1228 1600 
Q 959 1441 959 1056 
Q 959 750 1161 570 
Q 1363 391 1709 391 
Q 2188 391 2477 730 
Q 2766 1069 2766 1631 
L 2766 1759 
L 2194 1759 
z
M 3341 1997 
L 3341 0 
L 2766 0 
L 2766 531 
Q 2569 213 2275 61 
Q 1981 -91 1556 -91 
Q 1019 -91 701 211 
Q 384 513 384 1019 
Q 384 1609 779 1909 
Q 1175 2209 1959 2209 
L 2766 2209 
L 2766 2266 
Q 2766 2663 2505 2880 
Q 2244 3097 1772 3097 
Q 1472 3097 1187 3025 
Q 903 2953 641 2809 
L 641 3341 
Q 956 3463 1253 3523 
Q 1550 3584 1831 3584 
Q 2591 3584 2966 3190 
Q 3341 2797 3341 1997 
z
" transform="scale(0.015625)"/>
     <path id="DejaVuSans-6d" d="M 3328 2828 
Q 3544 3216 3844 3400 
Q 4144 3584 4550 3584 
Q 5097 3584 5394 3201 
Q 5691 2819 5691 2113 
L 5691 0 
L 5113 0 
L 5113 2094 
Q 5113 2597 4934 2840 
Q 4756 3084 4391 3084 
Q 3944 3084 3684 2787 
Q 3425 2491 3425 1978 
L 3425 0 
L 2847 0 
L 2847 2094 
Q 2847 2600 2669 2842 
Q 2491 3084 2119 3084 
Q 1678 3084 1418 2786 
Q 1159 2488 1159 1978 
L 1159 0 
L 581 0 
L 581 3500 
L 1159 3500 
L 1159 2956 
Q 1356 3278 1631 3431 
Q 1906 3584 2284 3584 
Q 2666 3584 2933 3390 
Q 3200 3197 3328 2828 
z
" transform="scale(0.015625)"/>
     <path id="DejaVuSans-66" d="M 2375 4863 
L 2375 4384 
L 1825 4384 
Q 1516 4384 1395 4259 
Q 1275 4134 1275 3809 
L 1275 3500 
L 2222 3500 
L 2222 3053 
L 1275 3053 
L 1275 0 
L 697 0 
L 697 3053 
L 147 3053 
L 147 3500 
L 697 3500 
L 697 3744 
Q 697 4328 969 4595 
Q 1241 4863 1831 4863 
L 2375 4863 
z
" transform="scale(0.015625)"/>
     <path id="DejaVuSans-41" d="M 2188 4044 
L 1331 1722 
L 3047 1722 
L 2188 4044 
z
M 1831 4666 
L 2547 4666 
L 4325 0 
L 3669 0 
L 3244 1197 
L 1141 1197 
L 716 0 
L 50 0 
L 1831 4666 
z
" transform="scale(0.015625)"/>
     <path id="DejaVuSans-63" d="M 3122 3366 
L 3122 2828 
Q 2878 2963 2633 3030 
Q 2388 3097 2138 3097 
Q 1578 3097 1268 2742 
Q 959 2388 959 1747 
Q 959 1106 1268 751 
Q 1578 397 2138 397 
Q 2388 397 2633 464 
Q 2878 531 3122 666 
L 3122 134 
Q 2881 22 2623 -34 
Q 2366 -91 2075 -91 
Q 1284 -91 818 406 
Q 353 903 353 1747 
Q 353 2603 823 3093 
Q 1294 3584 2113 3584 
Q 2378 3584 2631 3529 
Q 2884 3475 3122 3366 
z
" transform="scale(0.015625)"/>
    </defs>
    <use xlink:href="#DejaVuSans-48"/>
    <use xlink:href="#DejaVuSans-69" transform="translate(75.195312 0)"/>
    <use xlink:href="#DejaVuSans-73" transform="translate(102.978516 0)"/>
    <use xlink:href="#DejaVuSans-74" transform="translate(155.078125 0)"/>
    <use xlink:href="#DejaVuSans-6f" transform="translate(194.287109 0)"/>
    <use xlink:href="#DejaVuSans-67" transform="translate(255.46875 0)"/>
    <use xlink:href="#DejaVuSans-72" transform="translate(318.945312 0)"/>
    <use xlink:href="#DejaVuSans-61" transform="translate(360.058594 0)"/>
    <use xlink:href="#DejaVuSans-6d" transform="translate(421.337891 0)"/>
    <use xlink:href="#DejaVuSans-73" transform="translate(518.75 0)"/>
    <use xlink:href="#DejaVuSans-20" transform="translate(570.849609 0)"/>
    <use xlink:href="#DejaVuSans-6f" transform="translate(602.636719 0)"/>
    <use xlink:href="#DejaVuSans-66" transform="translate(663.818359 0)"/>
    <use xlink:href="#DejaVuSans-20" transform="translate(699.023438 0)"/>
    <use xlink:href="#DejaVuSans-41" transform="translate(730.810547 0)"/>
    <use xlink:href="#DejaVuSans-63" transform="translate(797.46875 0)"/>
    <use xlink:href="#DejaVuSans-63" transform="translate(852.449219 0)"/>
    <use xlink:href="#DejaVuSans-75" transform="translate(907.429688 0)"/>
    <use xlink:href="#DejaVuSans-72" transform="translate(970.808594 0)"/>
    <use xlink:href="#DejaVuSans-61" transform="translate(1011.921875 0)"/>
    <use xlink:href="#DejaVuSans-63" transform="translate(1073.201172 0)"/>
    <use xlink:href="#DejaVuSans-79" transform="translate(1128.181641 0)"/>
    <use xlink:href="#DejaVuSans-20" transform="translate(1187.361328 0)"/>
    <use xlink:href="#DejaVuSans-4d" transform="translate(1219.148438 0)"/>
    <use xlink:href="#DejaVuSans-65" transform="translate(1305.427734 0)"/>
    <use xlink:href="#DejaVuSans-61" transform="translate(1366.951172 0)"/>
    <use xlink:href="#DejaVuSans-73" transform="translate(1428.230469 0)"/>
    <use xlink:href="#DejaVuSans-75" transform="translate(1480.330078 0)"/>
    <use xlink:href="#DejaVuSans-72" transform="translate(1543.708984 0)"/>
    <use xlink:href="#DejaVuSans-65" transform="translate(1582.572266 0)"/>
    <use xlink:href="#DejaVuSans-73" transform="translate(1644.095703 0)"/>
   </g>
  </g>
 </g>
 <defs>
  <clipPath id="p30c3722a6c">
   <rect x="44.57" y="52.152" width="308.313792" height="262.576"/>
  </clipPath>
  <clipPath id="pb3bb903848">
   <rect x="402.728104" y="52.152" width="308.313792" height="262.576"/>
  </clipPath>
  <clipPath id="pd44d9eeaa3">
   <rect x="760.886208" y="52.152" width="308.313792" height="262.576"/>
  </clipPath>
 </defs>
</svg>
